<svg xmlns="http://www.w3.org/2000/svg" xmlns:xlink="http://www.w3.org/1999/xlink" xmlns:lucid="lucid" width="694" height="1029"><g transform="translate(-343 -60)" lucid:page-tab-id="18_45"><path d="M0 0h1360v1760H0z" fill="#fff"/><path d="M199.9 72c0-6.63 5.4-12 12-12h936.2c6.6 0 12 5.37 12 12v39.08c0 6.62-5.4 12-12 12H211.9c-6.6 0-12-5.38-12-12z" stroke="#000" stroke-opacity="0" stroke-width="2" fill="#fff" fill-opacity="0"/><use xlink:href="#a" transform="matrix(1,0,0,1,204.91289017655032,65) translate(364.35185185185185 31.458333333333336)"/><use xlink:href="#b" transform="matrix(1,0,0,1,204.91289017655032,65) translate(408.72222222222223 31.458333333333336)"/><use xlink:href="#c" transform="matrix(1,0,0,1,204.91289017655032,65) translate(453.0925925925926 31.458333333333336)"/><use xlink:href="#d" transform="matrix(1,0,0,1,204.91289017655032,65) translate(530.5 31.458333333333336)"/><path d="M455.04 135.87c0-6.63 5.38-12 12-12h430c6.63 0 12 5.37 12 12v9.92c0 6.62-5.37 12-12 12h-430c-6.62 0-12-5.38-12-12z" stroke="#000" stroke-opacity="0" stroke-width="2" fill="#fff" fill-opacity="0"/><use xlink:href="#e" transform="matrix(1,0,0,1,460.04447438394817,128.86936285872477) translate(71.00617283950618 15.444444444444446)"/><use xlink:href="#f" transform="matrix(1,0,0,1,460.04447438394817,128.86936285872477) translate(75.32716049382717 15.444444444444446)"/><use xlink:href="#g" transform="matrix(1,0,0,1,460.04447438394817,128.86936285872477) translate(89.9320987654321 15.444444444444446)"/><use xlink:href="#h" transform="matrix(1,0,0,1,460.04447438394817,128.86936285872477) translate(119.14197530864197 15.444444444444446)"/><use xlink:href="#i" transform="matrix(1,0,0,1,460.04447438394817,128.86936285872477) translate(133.7469135802469 15.444444444444446)"/><use xlink:href="#j" transform="matrix(1,0,0,1,460.04447438394817,128.86936285872477) translate(163.9074074074074 15.444444444444446)"/><use xlink:href="#k" transform="matrix(1,0,0,1,460.04447438394817,128.86936285872477) translate(178.51234567901236 15.444444444444446)"/><use xlink:href="#f" transform="matrix(1,0,0,1,460.04447438394817,128.86936285872477) translate(207.72222222222223 15.444444444444446)"/><use xlink:href="#l" transform="matrix(1,0,0,1,460.04447438394817,128.86936285872477) translate(222.32716049382717 15.444444444444446)"/><use xlink:href="#m" transform="matrix(1,0,0,1,460.04447438394817,128.86936285872477) translate(249.89506172839506 15.444444444444446)"/><use xlink:href="#n" transform="matrix(1,0,0,1,460.04447438394817,128.86936285872477) translate(262.55555555555554 15.444444444444446)"/><use xlink:href="#o" transform="matrix(1,0,0,1,460.04447438394817,128.86936285872477) translate(322.141975308642 15.444444444444446)"/><use xlink:href="#p" transform="matrix(1,0,0,1,460.04447438394817,128.86936285872477) translate(339.4259259259259 15.444444444444446)"/><path d="M422.3 115.6H941.9M422.33 115.6h-1.02M941.86 115.6h1.02" stroke="#b2b2b2" stroke-width="2" fill="none"/><path d="M367.46 365c0-2.76 2.24-5 5-5h263.47c2.77 0 5 2.24 5 5v286c0 2.76-2.23 5-5 5H372.46c-2.76 0-5-2.24-5-5z" fill="#fff"/><path d="M367.46 432h273.47v32H367.46zM367.46 496h273.47v32H367.46zM367.46 560h273.47v32H367.46zM367.46 624h273.47v32H367.46z" fill="#e6e6e6"/><path d="M367.46 360h273.47v40H367.46z" fill="#ccc"/><path d="M367.46 365c0-2.76 2.24-5 5-5h263.47c2.77 0 5 2.24 5 5v286c0 2.76-2.23 5-5 5H372.46c-2.76 0-5-2.24-5-5zM367.46 400h273.47M436.13 400v256" stroke="#000" fill="none"/><use xlink:href="#q" transform="matrix(1,0,0,1,377.46458052650485,360) translate(11.2 25.15555555555556)"/><use xlink:href="#r" transform="matrix(1,0,0,1,372.46458052650485,402.5) translate(17.5 17.1)"/><use xlink:href="#s" transform="matrix(1,0,0,1,441.13124719317153,402.5) translate(0 17.1)"/><use xlink:href="#t" transform="matrix(1,0,0,1,372.46458052650485,434.5) translate(7.550000000000001 17.1)"/><use xlink:href="#u" transform="matrix(1,0,0,1,441.13124719317153,434.5) translate(0 17.1)"/><use xlink:href="#t" transform="matrix(1,0,0,1,372.46458052650485,466.5) translate(7.550000000000001 17.1)"/><use xlink:href="#v" transform="matrix(1,0,0,1,441.13124719317153,466.5) translate(0 17.1)"/><use xlink:href="#w" transform="matrix(1,0,0,1,441.13124719317153,466.5) translate(65.9 17.1)"/><use xlink:href="#x" transform="matrix(1,0,0,1,441.13124719317153,466.5) translate(71.85000000000001 17.1)"/><use xlink:href="#y" transform="matrix(1,0,0,1,441.13124719317153,466.5) translate(88.75000000000001 17.1)"/><use xlink:href="#z" transform="matrix(1,0,0,1,441.13124719317153,466.5) translate(110.65000000000002 17.1)"/><use xlink:href="#A" transform="matrix(1,0,0,1,441.13124719317153,466.5) translate(127.55000000000003 17.1)"/><use xlink:href="#B" transform="matrix(1,0,0,1,441.13124719317153,466.5) translate(144.45000000000002 17.1)"/><use xlink:href="#C" transform="matrix(1,0,0,1,441.13124719317153,466.5) translate(161.35000000000002 17.1)"/><use xlink:href="#D" transform="matrix(1,0,0,1,372.46458052650485,498.5) translate(2.049999999999997 17.1)"/><use xlink:href="#E" transform="matrix(1,0,0,1,441.13124719317153,498.5) translate(0 17.1)"/><use xlink:href="#t" transform="matrix(1,0,0,1,372.46458052650485,530.5) translate(7.550000000000001 17.1)"/><use xlink:href="#F" transform="matrix(1,0,0,1,441.13124719317153,530.5) translate(0 17.1)"/><use xlink:href="#t" transform="matrix(1,0,0,1,372.46458052650485,562.5) translate(7.550000000000001 17.1)"/><use xlink:href="#G" transform="matrix(1,0,0,1,441.13124719317153,562.5) translate(0 17.1)"/><use xlink:href="#t" transform="matrix(1,0,0,1,372.46458052650485,594.5) translate(7.550000000000001 17.1)"/><use xlink:href="#H" transform="matrix(1,0,0,1,441.13124719317153,594.5) translate(0 17.1)"/><use xlink:href="#D" transform="matrix(1,0,0,1,372.46458052650485,626.5) translate(2.049999999999997 17.1)"/><use xlink:href="#I" transform="matrix(1,0,0,1,441.13124719317153,626.5) translate(0 17.1)"/><path d="M757.67 544.55c0-2.76 2.24-5 5-5H1015c2.76 0 5 2.24 5 5v158c0 2.77-2.24 5-5 5H762.67c-2.76 0-5-2.23-5-5z" fill="#fff"/><path d="M757.67 611.55H1020v32H757.67zM757.67 675.55H1020v32H757.67z" fill="#e6e6e6"/><path d="M757.67 539.55H1020v40H757.67z" fill="#ccc"/><path d="M757.67 544.55c0-2.76 2.24-5 5-5H1015c2.76 0 5 2.24 5 5v158c0 2.77-2.24 5-5 5H762.67c-2.76 0-5-2.23-5-5zM757.67 579.55H1020M840.53 579.55v128" stroke="#000" fill="none"/><use xlink:href="#J" transform="matrix(1,0,0,1,767.6688426253395,539.5547152218517) translate(0 23.555555555555557)"/><use xlink:href="#D" transform="matrix(1,0,0,1,762.6688426253395,582.0547152218517) translate(9.049999999999997 17.1)"/><use xlink:href="#s" transform="matrix(1,0,0,1,845.5333333333343,582.0547152218517) translate(0 17.1)"/><use xlink:href="#K" transform="matrix(1,0,0,1,762.6688426253395,614.0547152218517) translate(25.025 17.1)"/><use xlink:href="#L" transform="matrix(1,0,0,1,845.5333333333343,614.0547152218517) translate(0 17.1)"/><use xlink:href="#t" transform="matrix(1,0,0,1,762.6688426253395,646.0547152218517) translate(14.55 17.1)"/><use xlink:href="#M" transform="matrix(1,0,0,1,845.5333333333343,646.0547152218517) translate(0 17.1)"/><use xlink:href="#N" transform="matrix(1,0,0,1,762.6688426253395,678.0547152218517) translate(22 17.1)"/><use xlink:href="#O" transform="matrix(1,0,0,1,845.5333333333343,678.0547152218517) translate(0 17.1)"/><path d="M757.67 332.78c0-2.76 2.24-5 5-5H1015c2.76 0 5 2.24 5 5v190c0 2.76-2.24 5-5 5H762.67c-2.76 0-5-2.24-5-5z" fill="#fff"/><path d="M757.67 399.78H1020v32H757.67zM757.67 463.78H1020v32H757.67z" fill="#e6e6e6"/><path d="M757.67 327.78H1020v40H757.67z" fill="#ccc"/><path d="M757.67 332.78c0-2.76 2.24-5 5-5H1015c2.76 0 5 2.24 5 5v190c0 2.76-2.24 5-5 5H762.67c-2.76 0-5-2.24-5-5zM757.67 367.78H1020M839.2 367.78v160" stroke="#000" fill="none"/><use xlink:href="#P" transform="matrix(1,0,0,1,767.6688426253395,327.77735761092583) translate(11.2 25.15555555555556)"/><use xlink:href="#D" transform="matrix(1,0,0,1,762.6688426253395,370.27735761092583) translate(8.549999999999997 17.1)"/><use xlink:href="#s" transform="matrix(1,0,0,1,844.200000000001,370.27735761092583) translate(0 17.1)"/><use xlink:href="#K" transform="matrix(1,0,0,1,762.6688426253395,402.27735761092583) translate(24.525 17.1)"/><use xlink:href="#L" transform="matrix(1,0,0,1,844.200000000001,402.27735761092583) translate(0 17.1)"/><use xlink:href="#Q" transform="matrix(1,0,0,1,762.6688426253395,434.27735761092583) translate(1.5499999999999972 17.1)"/><use xlink:href="#R" transform="matrix(1,0,0,1,844.200000000001,434.27735761092583) translate(0 17.1)"/><use xlink:href="#D" transform="matrix(1,0,0,1,762.6688426253395,466.27735761092583) translate(8.549999999999997 17.1)"/><use xlink:href="#S" transform="matrix(1,0,0,1,844.200000000001,466.27735761092583) translate(0 17.1)"/><use xlink:href="#w" transform="matrix(1,0,0,1,844.200000000001,466.27735761092583) translate(20.95 17.1)"/><use xlink:href="#A" transform="matrix(1,0,0,1,844.200000000001,466.27735761092583) translate(26.9 17.1)"/><use xlink:href="#T" transform="matrix(1,0,0,1,844.200000000001,466.27735761092583) translate(43.8 17.1)"/><use xlink:href="#D" transform="matrix(1,0,0,1,762.6688426253395,498.27735761092583) translate(8.549999999999997 17.1)"/><use xlink:href="#U" transform="matrix(1,0,0,1,844.200000000001,498.27735761092583) translate(0 17.1)"/><use xlink:href="#w" transform="matrix(1,0,0,1,844.200000000001,498.27735761092583) translate(106.85000000000001 17.1)"/><use xlink:href="#V" transform="matrix(1,0,0,1,844.200000000001,498.27735761092583) translate(112.80000000000001 17.1)"/><use xlink:href="#W" transform="matrix(1,0,0,1,844.200000000001,498.27735761092583) translate(129.70000000000002 17.1)"/><path d="M367.46 228.78c0-2.76 2.24-5 5-5h263.47c2.77 0 5 2.24 5 5v94c0 2.76-2.23 5-5 5H372.46c-2.76 0-5-2.24-5-5z" fill="#fff"/><path d="M367.46 295.78h273.47v32H367.46z" fill="#e6e6e6"/><path d="M367.46 223.78h273.47v40H367.46z" fill="#ccc"/><path d="M367.46 228.78c0-2.76 2.24-5 5-5h263.47c2.77 0 5 2.24 5 5v94c0 2.76-2.23 5-5 5H372.46c-2.76 0-5-2.24-5-5zM367.46 263.78h273.47M437.46 263.78v64" stroke="#000" fill="none"/><use xlink:href="#X" transform="matrix(1,0,0,1,377.46458052650485,223.77735761092583) translate(11.2 25.15555555555556)"/><use xlink:href="#r" transform="matrix(1,0,0,1,372.46458052650485,266.27735761092583) translate(18 17.1)"/><use xlink:href="#s" transform="matrix(1,0,0,1,442.46458052650485,266.27735761092583) translate(0 17.1)"/><use xlink:href="#D" transform="matrix(1,0,0,1,372.46458052650485,298.27735761092583) translate(2.549999999999997 17.1)"/><use xlink:href="#u" transform="matrix(1,0,0,1,442.46458052650485,298.27735761092583) translate(0 17.1)"/><path d="M661.43 279.78h31.98c3.27 0 5.9-2.64 5.9-5.9 0-3.24 2.64-5.88 5.9-5.88h35.58" stroke="#000" fill="none"/><path fill="#fff"/><path d="M661.93 289.78h-1v-20h1z"/><path fill="#fff"/><path d="M661.43 280.28h-20v-1h20zM755.55 268l-14.27 4.64v-9.28z"/><path d="M757.17 268l-16.4 5.32v-10.64zm-15.4 3.95l12.16-3.95-12.15-3.95z"/><path d="M757.67 185c0-2.76 2.24-5 5-5H1015c2.76 0 5 2.24 5 5v126c0 2.76-2.24 5-5 5H762.67c-2.76 0-5-2.24-5-5z" fill="#fff"/><path d="M757.67 252H1020v32H757.67z" fill="#e6e6e6"/><path d="M757.67 180H1020v40H757.67z" fill="#ccc"/><path d="M757.67 185c0-2.76 2.24-5 5-5H1015c2.76 0 5 2.24 5 5v126c0 2.76-2.24 5-5 5H762.67c-2.76 0-5-2.24-5-5zM757.67 220H1020M839.2 220v96" stroke="#000" fill="none"/><use xlink:href="#Y" transform="matrix(1,0,0,1,767.6688426253395,180) translate(11.2 25.15555555555556)"/><use xlink:href="#D" transform="matrix(1,0,0,1,762.6688426253395,222.5) translate(8.549999999999997 17.1)"/><use xlink:href="#s" transform="matrix(1,0,0,1,844.200000000001,222.5) translate(0 17.1)"/><use xlink:href="#K" transform="matrix(1,0,0,1,762.6688426253395,254.5) translate(24.525 17.1)"/><use xlink:href="#Z" transform="matrix(1,0,0,1,844.200000000001,254.5) translate(0 17.055555555555557)"/><use xlink:href="#K" transform="matrix(1,0,0,1,762.6688426253395,286.5) translate(24.525 17.1)"/><use xlink:href="#L" transform="matrix(1,0,0,1,844.200000000001,286.5) translate(0 17.1)"/><path d="M661.43 416h25.87c6.63 0 12-5.37 12-12v-92c0-6.63 5.37-12 12-12h29.48" stroke="#000" fill="none"/><path fill="#fff"/><path d="M661.93 426h-1v-20h1z"/><path fill="#fff"/><path d="M661.43 416.5h-20v-1h20zM755.55 300l-14.27 4.64v-9.28z"/><path d="M757.17 300l-16.4 5.32v-10.64zm-15.4 3.95l12.16-3.95-12.15-3.95z"/><path d="M740.78 415.78H699.4c-.05 0-.1.05-.1.1 0 .07-.05.12-.1.12h-37.77" stroke="#000" fill="none"/><path d="M755.55 415.78l-14.27 4.63v-9.26z"/><path d="M757.17 415.78l-16.4 5.32v-10.65zm-15.4 3.94l12.16-3.94-12.15-3.95z"/><path fill="#fff"/><path d="M661.93 426h-1v-20h1z"/><path fill="#fff"/><path d="M661.43 416.5h-20v-1h20z"/><path d="M740.78 627.55H711.3c-6.63 0-12-5.37-12-12V428c0-6.63-5.37-12-12-12h-25.87" stroke="#000" fill="none"/><path d="M755.55 627.55l-14.27 4.64v-9.28z"/><path d="M757.17 627.55l-16.4 5.33v-10.65zm-15.4 3.95l12.16-3.95-12.15-3.94z"/><path fill="#fff"/><path d="M661.93 426h-1v-20h1z"/><path fill="#fff"/><path d="M661.43 416.5h-20v-1h20z"/><path d="M440 745c0-2.76 2.24-5 5-5h190c2.76 0 5 2.24 5 5v126c0 2.76-2.24 5-5 5H445c-2.76 0-5-2.24-5-5z" fill="#fff"/><path d="M440 812h200v32H440z" fill="#e6e6e6"/><path d="M440 740h200v40H440z" fill="#ccc"/><path d="M440 745c0-2.76 2.24-5 5-5h190c2.76 0 5 2.24 5 5v126c0 2.76-2.24 5-5 5H445c-2.76 0-5-2.24-5-5zM440 780h200M500 780v96" stroke="#000" fill="none"/><use xlink:href="#aa" transform="matrix(1,0,0,1,450,740) translate(11.2 25.15555555555556)"/><use xlink:href="#ab" transform="matrix(1,0,0,1,450,740) translate(28.977777777777778 25.15555555555556)"/><use xlink:href="#ac" transform="matrix(1,0,0,1,450,740) translate(46.75555555555556 25.15555555555556)"/><use xlink:href="#ad" transform="matrix(1,0,0,1,450,740) translate(68.97777777777779 25.15555555555556)"/><use xlink:href="#ae" transform="matrix(1,0,0,1,450,740) translate(79.29876543209878 25.15555555555556)"/><use xlink:href="#af" transform="matrix(1,0,0,1,450,740) translate(117.17530864197532 25.15555555555556)"/><use xlink:href="#ag" transform="matrix(1,0,0,1,445,782.5) translate(20 17.1)"/><use xlink:href="#ah" transform="matrix(1,0,0,1,505,782.5) translate(0 17.1)"/><use xlink:href="#ai" transform="matrix(1,0,0,1,445,814.5) translate(20 17.1)"/><use xlink:href="#aj" transform="matrix(1,0,0,1,505,814.5) translate(0 17.1)"/><use xlink:href="#ak" transform="matrix(1,0,0,1,445,846.5) translate(20 17.1)"/><use xlink:href="#al" transform="matrix(1,0,0,1,505,846.5) translate(0 17.1)"/><path d="M440 905c0-2.76 2.24-5 5-5h190c2.76 0 5 2.24 5 5v94c0 2.76-2.24 5-5 5H445c-2.76 0-5-2.24-5-5z" fill="#fff"/><path d="M440 972h200v32H440z" fill="#e6e6e6"/><path d="M440 900h200v40H440z" fill="#ccc"/><path d="M440 905c0-2.76 2.24-5 5-5h190c2.76 0 5 2.24 5 5v94c0 2.76-2.24 5-5 5H445c-2.76 0-5-2.24-5-5zM440 940h200M500 940v64" stroke="#000" fill="none"/><use xlink:href="#aa" transform="matrix(1,0,0,1,450,900) translate(11.2 25.15555555555556)"/><use xlink:href="#ab" transform="matrix(1,0,0,1,450,900) translate(28.977777777777778 25.15555555555556)"/><use xlink:href="#ac" transform="matrix(1,0,0,1,450,900) translate(46.75555555555556 25.15555555555556)"/><use xlink:href="#ad" transform="matrix(1,0,0,1,450,900) translate(68.97777777777779 25.15555555555556)"/><use xlink:href="#ae" transform="matrix(1,0,0,1,450,900) translate(79.29876543209878 25.15555555555556)"/><use xlink:href="#am" transform="matrix(1,0,0,1,450,900) translate(117.17530864197532 25.15555555555556)"/><g><use xlink:href="#ag" transform="matrix(1,0,0,1,445,942.5) translate(20 17.1)"/></g><g><use xlink:href="#an" transform="matrix(1,0,0,1,505,942.5) translate(0 17.1)"/></g><g><use xlink:href="#ai" transform="matrix(1,0,0,1,445,974.5) translate(20 17.1)"/></g><g><use xlink:href="#ao" transform="matrix(1,0,0,1,505,974.5) translate(0 17.1)"/></g><path d="M700 745c0-2.76 2.24-5 5-5h230c2.76 0 5 2.24 5 5v318c0 2.76-2.24 5-5 5H705c-2.76 0-5-2.24-5-5z" fill="#fff"/><path d="M700 812h240v32H700zM700 876h240v32H700zM700 940h240v32H700zM700 1004h240v32H700z" fill="#e6e6e6"/><path d="M700 740h240v40H700z" fill="#ccc"/><path d="M700 745c0-2.76 2.24-5 5-5h230c2.76 0 5 2.24 5 5v318c0 2.76-2.24 5-5 5H705c-2.76 0-5-2.24-5-5zM700 780h240M760 780v288" stroke="#000" fill="none"/><g><use xlink:href="#aa" transform="matrix(1,0,0,1,710,740) translate(11.2 25.15555555555556)"/><use xlink:href="#ab" transform="matrix(1,0,0,1,710,740) translate(28.977777777777778 25.15555555555556)"/><use xlink:href="#ac" transform="matrix(1,0,0,1,710,740) translate(46.75555555555556 25.15555555555556)"/><use xlink:href="#ad" transform="matrix(1,0,0,1,710,740) translate(68.97777777777779 25.15555555555556)"/><use xlink:href="#ap" transform="matrix(1,0,0,1,710,740) translate(79.29876543209878 25.15555555555556)"/><use xlink:href="#aq" transform="matrix(1,0,0,1,710,740) translate(167.44691358024693 25.15555555555556)"/></g><g><use xlink:href="#ag" transform="matrix(1,0,0,1,705,782.5) translate(20 17.1)"/></g><g><use xlink:href="#ar" transform="matrix(1,0,0,1,765,782.5) translate(0 17.1)"/><use xlink:href="#as" transform="matrix(1,0,0,1,765,782.5) translate(16.900000000000002 17.1)"/><use xlink:href="#at" transform="matrix(1,0,0,1,765,782.5) translate(33.800000000000004 17.1)"/></g><g><use xlink:href="#ai" transform="matrix(1,0,0,1,705,814.5) translate(20 17.1)"/></g><g><use xlink:href="#au" transform="matrix(1,0,0,1,765,814.5) translate(0 17.1)"/><use xlink:href="#av" transform="matrix(1,0,0,1,765,814.5) translate(16.900000000000002 17.1)"/><use xlink:href="#as" transform="matrix(1,0,0,1,765,814.5) translate(33.800000000000004 17.1)"/><use xlink:href="#aw" transform="matrix(1,0,0,1,765,814.5) translate(50.7 17.1)"/><use xlink:href="#ax" transform="matrix(1,0,0,1,765,814.5) translate(67.60000000000001 17.1)"/><use xlink:href="#ay" transform="matrix(1,0,0,1,765,814.5) translate(84.50000000000001 17.1)"/></g><g><use xlink:href="#ak" transform="matrix(1,0,0,1,705,846.5) translate(20 17.1)"/></g><g><use xlink:href="#az" transform="matrix(1,0,0,1,765,846.5) translate(0 17.1)"/><use xlink:href="#aA" transform="matrix(1,0,0,1,765,846.5) translate(16.900000000000002 17.1)"/><use xlink:href="#aB" transform="matrix(1,0,0,1,765,846.5) translate(33.800000000000004 17.1)"/><use xlink:href="#aC" transform="matrix(1,0,0,1,765,846.5) translate(50.7 17.1)"/><use xlink:href="#aD" transform="matrix(1,0,0,1,765,846.5) translate(67.60000000000001 17.1)"/><use xlink:href="#aE" transform="matrix(1,0,0,1,765,846.5) translate(84.50000000000001 17.1)"/></g><g><use xlink:href="#aF" transform="matrix(1,0,0,1,705,878.5) translate(20 17.1)"/></g><g><use xlink:href="#aG" transform="matrix(1,0,0,1,765,878.5) translate(0 17.1)"/><use xlink:href="#aH" transform="matrix(1,0,0,1,765,878.5) translate(16.900000000000002 17.1)"/><use xlink:href="#aI" transform="matrix(1,0,0,1,765,878.5) translate(33.800000000000004 17.1)"/><use xlink:href="#aJ" transform="matrix(1,0,0,1,765,878.5) translate(50.7 17.1)"/><use xlink:href="#aK" transform="matrix(1,0,0,1,765,878.5) translate(67.60000000000001 17.1)"/></g><g><use xlink:href="#aL" transform="matrix(1,0,0,1,705,910.5) translate(20 17.1)"/></g><g><use xlink:href="#aM" transform="matrix(1,0,0,1,765,910.5) translate(0 17.1)"/><use xlink:href="#aN" transform="matrix(1,0,0,1,765,910.5) translate(16.900000000000002 17.1)"/><use xlink:href="#aO" transform="matrix(1,0,0,1,765,910.5) translate(33.800000000000004 17.1)"/></g><g><use xlink:href="#aP" transform="matrix(1,0,0,1,705,942.5) translate(20 17.1)"/></g><g><use xlink:href="#aQ" transform="matrix(1,0,0,1,765,942.5) translate(0 17.1)"/><use xlink:href="#aR" transform="matrix(1,0,0,1,765,942.5) translate(16.900000000000002 17.1)"/><use xlink:href="#aS" transform="matrix(1,0,0,1,765,942.5) translate(33.800000000000004 17.1)"/><use xlink:href="#aT" transform="matrix(1,0,0,1,765,942.5) translate(50.7 17.1)"/></g><g><use xlink:href="#aU" transform="matrix(1,0,0,1,705,974.5) translate(20 17.1)"/></g><g><use xlink:href="#aV" transform="matrix(1,0,0,1,765,974.5) translate(0 17.1)"/><use xlink:href="#aW" transform="matrix(1,0,0,1,765,974.5) translate(16.900000000000002 17.1)"/><use xlink:href="#aX" transform="matrix(1,0,0,1,765,974.5) translate(33.800000000000004 17.1)"/><use xlink:href="#aY" transform="matrix(1,0,0,1,765,974.5) translate(51.800000000000004 17.1)"/></g><g><use xlink:href="#aZ" transform="matrix(1,0,0,1,705,1006.5) translate(20 17.1)"/></g><g><use xlink:href="#ba" transform="matrix(1,0,0,1,765,1006.5) translate(0 17.1)"/><use xlink:href="#bb" transform="matrix(1,0,0,1,765,1006.5) translate(16.900000000000002 17.1)"/><use xlink:href="#bc" transform="matrix(1,0,0,1,765,1006.5) translate(33.800000000000004 17.1)"/><use xlink:href="#bd" transform="matrix(1,0,0,1,765,1006.5) translate(50.7 17.1)"/></g><g><use xlink:href="#be" transform="matrix(1,0,0,1,705,1038.5) translate(20 17.1)"/></g><g><use xlink:href="#bf" transform="matrix(1,0,0,1,765,1038.5) translate(0 17.1)"/><use xlink:href="#bg" transform="matrix(1,0,0,1,765,1038.5) translate(16.900000000000002 17.1)"/><use xlink:href="#bh" transform="matrix(1,0,0,1,765,1038.5) translate(33.800000000000004 17.1)"/><use xlink:href="#bi" transform="matrix(1,0,0,1,765,1038.5) translate(50.7 17.1)"/></g><defs><path fill="#b2b2b2" d="M140-251c80 0 125 45 125 126S219 4 139 4C58 4 15-44 15-125s44-126 125-126zm-1 214c52 0 73-35 73-88 0-50-21-86-72-86-52 0-73 35-73 86s22 88 72 88" id="bj"/><path fill="#b2b2b2" d="M114-157C55-157 80-60 75 0H25v-261h50l-1 109c12-26 28-41 61-42 86-1 58 113 63 194h-50c-7-57 23-157-34-157" id="bk"/><g id="a"><use transform="matrix(0.07407407407407408,0,0,0.07407407407407408,0,0)" xlink:href="#bj"/><use transform="matrix(0.07407407407407408,0,0,0.07407407407407408,20.740740740740744,0)" xlink:href="#bk"/></g><path fill="#b2b2b2" d="M230 0l2-204L168 0h-37L68-204 70 0H24v-248h70l56 185 57-185h69V0h-46" id="bl"/><path fill="#b2b2b2" d="M123 10C108 53 80 86 19 72V37c35 8 53-11 59-39L3-190h52l48 148c12-52 28-100 44-148h51" id="bm"/><g id="b"><use transform="matrix(0.07407407407407408,0,0,0.07407407407407408,0,0)" xlink:href="#bl"/><use transform="matrix(0.07407407407407408,0,0,0.07407407407407408,22.148148148148152,0)" xlink:href="#bm"/></g><path fill="#b2b2b2" d="M275 0h-61l-44-196L126 0H64L0-248h53L97-49l45-199h58l43 199 44-199h52" id="bn"/><path fill="#b2b2b2" d="M133-34C117-15 103 5 69 4 32 3 11-16 11-54c-1-60 55-63 116-61 1-26-3-47-28-47-18 1-26 9-28 27l-52-2c7-38 36-58 82-57s74 22 75 68l1 82c-1 14 12 18 25 15v27c-30 8-71 5-69-32zm-48 3c29 0 43-24 42-57-32 0-66-3-65 30 0 17 8 27 23 27" id="bo"/><path fill="#b2b2b2" d="M195-6C206 82 75 100 31 46c-4-6-6-13-8-21l49-6c3 16 16 24 34 25 40 0 42-37 40-79-11 22-30 35-61 35-53 0-70-43-70-97 0-56 18-96 73-97 30 0 46 14 59 34l2-30h47zm-90-29c32 0 41-27 41-63 0-35-9-62-40-62-32 0-39 29-40 63 0 36 9 62 39 62" id="bp"/><path fill="#b2b2b2" d="M185-48c-13 30-37 53-82 52C43 2 14-33 14-96s30-98 90-98c62 0 83 45 84 108H66c0 31 8 55 39 56 18 0 30-7 34-22zm-45-69c5-46-57-63-70-21-2 6-4 13-4 21h74" id="bq"/><g id="c"><use transform="matrix(0.07407407407407408,0,0,0.07407407407407408,0,0)" xlink:href="#bn"/><use transform="matrix(0.07407407407407408,0,0,0.07407407407407408,24.148148148148152,0)" xlink:href="#bo"/><use transform="matrix(0.07407407407407408,0,0,0.07407407407407408,38.96296296296297,0)" xlink:href="#bp"/><use transform="matrix(0.07407407407407408,0,0,0.07407407407407408,55.18518518518519,0)" xlink:href="#bq"/></g><path fill="#b2b2b2" d="M24 0v-248h195v40H76v63h132v40H76v65h150V0H24" id="br"/><path fill="#b2b2b2" d="M240-174c0 40-23 61-54 70L253 0h-59l-57-94H76V0H24v-248c93 4 217-23 216 74zM76-134c48-2 112 12 112-38 0-48-66-32-112-35v73" id="bs"/><path fill="#b2b2b2" d="M24-248c120-7 223 5 221 122C244-46 201 0 124 0H24v-248zM76-40c74 7 117-18 117-86 0-67-45-88-117-82v168" id="bt"/><g id="d"><use transform="matrix(0.07407407407407408,0,0,0.07407407407407408,0,0)" xlink:href="#br"/><use transform="matrix(0.07407407407407408,0,0,0.07407407407407408,17.77777777777778,0)" xlink:href="#bs"/><use transform="matrix(0.07407407407407408,0,0,0.07407407407407408,36.96296296296296,0)" xlink:href="#bt"/></g><path fill="#b2b2b2" d="M26 75v-336h71v23H56V52h41v23H26" id="bu"/><use transform="matrix(0.04320987654320988,0,0,0.04320987654320988,0,0)" xlink:href="#bu" id="e"/><path fill="#b2b2b2" d="M247-209c16 63 38 110 69 157l-21 15c-30-46-53-104-70-165zM106 9c18 3 50 12 50-9v-279h24V5c3 37-37 32-69 28zM24-45c30-43 52-101 63-163l22 6C96-138 75-76 43-30" id="bv"/><use transform="matrix(0.04320987654320988,0,0,0.04320987654320988,0,0)" xlink:href="#bv" id="f"/><path fill="#b2b2b2" d="M189-69c33 34 78 60 129 77l-11 22c-49-21-96-45-128-83l1 95h-23v-91C124-15 78 11 30 31L19 9c50-17 95-43 129-78H28v-20h129v-31h23v31h130v20H189zm-80-143v-24H22v-19h87v-25h22v25h75v-25h22v25h88v19h-88v23h-22v-23h-75v24h-22zm173 15c-72 18-145 23-231 24l-7-21c79 3 162-5 224-23zm-53 77c13-18 26-38 36-59l20 11c-11 22-24 43-38 61zM93-102c-12-18-27-38-41-53l18-12c14 15 29 35 42 52zm84-21c-10-14-22-29-36-40l16-12c12 10 28 26 37 39" id="bw"/><path fill="#b2b2b2" d="M20 6V-5l72 30v34" id="bx"/><g id="g"><use transform="matrix(0.04320987654320988,0,0,0.04320987654320988,0,0)" xlink:href="#bw"/><use transform="matrix(0.04320987654320988,0,0,0.04320987654320988,14.60493827160494,0)" xlink:href="#bx"/></g><path fill="#b2b2b2" d="M270-143c-14 42-33 76-59 105 28 25 63 44 103 58l-12 21c-41-15-76-37-106-64-30 28-66 50-112 65L73 22c44-14 79-33 108-60-27-26-42-64-60-97C102-72 75-22 35 23L20 6c47-55 79-123 93-211H35v-20h81c3-17 5-35 7-53l22 2c-1 19-3 34-6 51h172v20H136c-2 19-6 35-10 51h129zm-125 8c11 30 28 58 51 82 22-22 36-51 48-82h-99" id="by"/><use transform="matrix(0.04320987654320988,0,0,0.04320987654320988,0,0)" xlink:href="#by" id="h"/><path fill="#b2b2b2" d="M45-244c20 15 27 29 37 43 11 0 13-19 4-27-6-5-19-12-38-20zm-22 73c21 14 25 29 36 42 12 1 13-19 4-26-6-5-18-12-37-20zM66 40c22-6-1-39 1-55 5-52 20-102 29-152l-2-1C78-123 64-84 53-50c-6 17-15 12-30 16v4c28 4 27 23 28 52 0 13 5 17 15 18zm268-200c-57-16-82-29-115-71 3-6 24-8 8-15-5-2-11-5-18-10-3 6-3 6-6 11h-70l4 9h61c-28 47-51 64-101 95l2 4c49-16 89-50 117-89 10 27 64 73 84 81 10-10 26-10 34-15zm-99-22l-14 14h-53l5 9h76c8 1 10-9 2-10-7-4-12-8-16-13zm-25 75c1-6 18-12 8-19-5-3-10-8-15-14-13 17-65 14-82 0 10 56 0 128 4 191 0 7 10-1 14-1 6-26 0-63 2-92 15 6 18 22 32 31 6 0 9-4 8-13-4-12-23-16-40-23v-42c17 4 22 17 35 25 5-1 8-5 8-14-8-8-24-11-43-15v-28h53V18c1 16-12 10-24 11v3c11 5 17 12 21 21 7-3 19-15 19-28v-132zm26 57c9-13 17-41 29-65 8 0 9-6 2-8-5-2-10-6-16-11-7 42-17 61-23 84 18 35 29 64 34 90 4 7 13 3 13-4 0-31-21-58-39-86zm48 2c7-13 17-40 26-66 8 0 9-5 2-8-5-2-9-6-15-11-6 42-15 63-21 85 18 33 30 63 36 87 4 7 13 4 12-4 3-29-22-56-40-83" id="bz"/><g id="i"><use transform="matrix(0.04320987654320988,0,0,0.04320987654320988,0,0)" xlink:href="#bz"/><use transform="matrix(0.04320987654320988,0,0,0.04320987654320988,15.555555555555557,0)" xlink:href="#bx"/></g><path fill="#b2b2b2" d="M202 13c16 2 47 13 47-8v-30H111v67H88V-98C73-81 57-65 39-51L26-72c35-25 62-57 85-93H33v-19h88c7-14 12-27 17-41l22 5-15 36h159v19H135l-18 30h156V11c2 33-36 27-66 24zm80-205v-37H56v37H33v-56h122v-32h24v32h126v56h-23zM111-42h138v-29H111v29zm0-46h138v-28H111v28" id="bA"/><use transform="matrix(0.04320987654320988,0,0,0.04320987654320988,0,0)" xlink:href="#bA" id="j"/><path fill="#b2b2b2" d="M287 10c13-5 10-26 13-42l18 12c-5 23-5 54-27 58-18 4-36-35-42-57-16 24-36 44-59 62l-13-16c26-20 48-44 65-73-11-46-16-94-18-151h-64v50h52c-9 55 26 134-47 123l-3-21c9 2 26 7 27-5 3-23 3-52 3-79h-32c0 66-5 127-27 172l-17-14c29-60 22-156 23-245h84l-2-64h22l1 64h70v19h-70l5 69c2 19 5 36 8 54 14-30 24-64 32-101l19 7c-11 46-25 88-45 124 6 20 12 41 24 54zM53 23v19H32V-70h81v93H53zm0-19h40v-55H53V4zM21-198v-19h101v19H21zm11-49v-19h82v19H32zm0 146v-19h82v19H32zm0-48v-19h82v19H32zm258-74c-12-16-23-28-34-37l14-11c13 10 24 22 35 35" id="bB"/><g id="k"><use transform="matrix(0.04320987654320988,0,0,0.04320987654320988,0,0)" xlink:href="#bB"/><use transform="matrix(0.04320987654320988,0,0,0.04320987654320988,14.60493827160494,0)" xlink:href="#bx"/></g><path fill="#b2b2b2" d="M164-189c46-4 92-12 127-28l13 18c-21 9-45 14-70 20 2 25 4 50 10 71 21-10 45-25 61-41l13 18c-21 16-42 31-68 43 14 45 39 80 69 110l-18 17c-50-49-82-121-88-214-8 2-18 4-27 4V6c22-3 43-9 62-15l5 21-118 26-5-22c12-1 23-3 34-6v-199zm-51-56c63-2 127-13 172-33l15 18c-47 20-106 30-164 36 0 101 3 204-39 267L77 27c42-60 36-168 36-272zM86-71C72-33 61 7 42 41L23 24C43-11 56-45 67-87zM31-188c18 12 39 29 55 45l-16 18c-16-18-33-31-52-45zm19-88c18 13 34 27 49 44l-16 18c-15-20-31-31-48-47" id="bC"/><path fill="#b2b2b2" d="M3 75V52h41v-290H3v-23h71V75H3" id="bD"/><g id="l"><use transform="matrix(0.04320987654320988,0,0,0.04320987654320988,0,0)" xlink:href="#bC"/><use transform="matrix(0.04320987654320988,0,0,0.04320987654320988,14.60493827160494,0)" xlink:href="#bD"/></g><path fill="#b2b2b2" d="M32 76v-337h29V76H32" id="bE"/><use transform="matrix(0.04320987654320988,0,0,0.04320987654320988,0,0)" xlink:href="#bE" id="m"/><path fill="#b2b2b2" d="M140-251c81 0 123 46 123 126C263-46 219 4 140 4 59 4 17-45 17-125s42-126 123-126zm0 227c63 0 89-41 89-101s-29-99-89-99c-61 0-89 39-89 99S79-25 140-24" id="bF"/><path fill="#b2b2b2" d="M96-169c-40 0-48 33-48 73s9 75 48 75c24 0 41-14 43-38l32 2c-6 37-31 61-74 61-59 0-76-41-82-99-10-93 101-131 147-64 4 7 5 14 7 22l-32 3c-4-21-16-35-41-35" id="bG"/><path fill="#b2b2b2" d="M59-47c-2 24 18 29 38 22v24C64 9 27 4 27-40v-127H5v-23h24l9-43h21v43h35v23H59v120" id="bH"/><path fill="#b2b2b2" d="M100-194c62-1 85 37 85 99 1 63-27 99-86 99S16-35 15-95c0-66 28-99 85-99zM99-20c44 1 53-31 53-75 0-43-8-75-51-75s-53 32-53 75 10 74 51 75" id="bI"/><path fill="#b2b2b2" d="M115-194c53 0 69 39 70 98 0 66-23 100-70 100C84 3 66-7 56-30L54 0H23l1-261h32v101c10-23 28-34 59-34zm-8 174c40 0 45-34 45-75 0-40-5-75-45-74-42 0-51 32-51 76 0 43 10 73 51 73" id="bJ"/><path fill="#b2b2b2" d="M100-194c63 0 86 42 84 106H49c0 40 14 67 53 68 26 1 43-12 49-29l28 8c-11 28-37 45-77 45C44 4 14-33 15-96c1-61 26-98 85-98zm52 81c6-60-76-77-97-28-3 7-6 17-6 28h103" id="bK"/><path fill="#b2b2b2" d="M114-163C36-179 61-72 57 0H25l-1-190h30c1 12-1 29 2 39 6-27 23-49 58-41v29" id="bL"/><g id="n"><use transform="matrix(0.04320987654320988,0,0,0.04320987654320988,0,0)" xlink:href="#bF"/><use transform="matrix(0.04320987654320988,0,0,0.04320987654320988,12.098765432098766,0)" xlink:href="#bG"/><use transform="matrix(0.04320987654320988,0,0,0.04320987654320988,19.876543209876544,0)" xlink:href="#bH"/><use transform="matrix(0.04320987654320988,0,0,0.04320987654320988,24.19753086419753,0)" xlink:href="#bI"/><use transform="matrix(0.04320987654320988,0,0,0.04320987654320988,32.839506172839506,0)" xlink:href="#bJ"/><use transform="matrix(0.04320987654320988,0,0,0.04320987654320988,41.48148148148148,0)" xlink:href="#bK"/><use transform="matrix(0.04320987654320988,0,0,0.04320987654320988,50.123456790123456,0)" xlink:href="#bL"/></g><path fill="#b2b2b2" d="M101-251c82-7 93 87 43 132L82-64C71-53 59-42 53-27h129V0H18c2-99 128-94 128-182 0-28-16-43-45-43s-46 15-49 41l-32-3c6-41 34-60 81-64" id="bM"/><path fill="#b2b2b2" d="M68-38c1 34 0 65-14 84H32c9-13 17-26 17-46H33v-38h35" id="bN"/><g id="o"><use transform="matrix(0.04320987654320988,0,0,0.04320987654320988,0,0)" xlink:href="#bM"/><use transform="matrix(0.04320987654320988,0,0,0.04320987654320988,8.641975308641976,0)" xlink:href="#bN"/></g><path fill="#b2b2b2" d="M101-251c68 0 85 55 85 127S166 4 100 4C33 4 14-52 14-124c0-73 17-127 87-127zm-1 229c47 0 54-49 54-102s-4-102-53-102c-51 0-55 48-55 102 0 53 5 102 54 102" id="bO"/><path fill="#b2b2b2" d="M27 0v-27h64v-190l-56 39v-29l58-41h29v221h61V0H27" id="bP"/><path fill="#b2b2b2" d="M99-251c64 0 84 50 84 122C183-37 130 33 47-8c-14-7-20-23-25-40l30-5c6 39 69 39 84 7 9-19 16-44 16-74-10 22-31 35-62 35-49 0-73-33-73-83 0-54 28-83 82-83zm-1 141c31-1 51-18 51-49 0-36-14-67-51-67-34 0-49 23-49 58 0 34 15 58 49 58" id="bQ"/><g id="p"><use transform="matrix(0.04320987654320988,0,0,0.04320987654320988,0,0)" xlink:href="#bM"/><use transform="matrix(0.04320987654320988,0,0,0.04320987654320988,8.641975308641976,0)" xlink:href="#bO"/><use transform="matrix(0.04320987654320988,0,0,0.04320987654320988,17.283950617283953,0)" xlink:href="#bP"/><use transform="matrix(0.04320987654320988,0,0,0.04320987654320988,25.925925925925927,0)" xlink:href="#bQ"/></g><path d="M232-93c-1 65-40 97-104 97C67 4 28-28 28-90v-158h33c8 89-33 224 67 224 102 0 64-133 71-224h33v155" id="bR"/><path d="M135-143c-3-34-86-38-87 0 15 53 115 12 119 90S17 21 10-45l28-5c4 36 97 45 98 0-10-56-113-15-118-90-4-57 82-63 122-42 12 7 21 19 24 35" id="bS"/><path d="M100-194c63 0 86 42 84 106H49c0 40 14 67 53 68 26 1 43-12 49-29l28 8c-11 28-37 45-77 45C44 4 14-33 15-96c1-61 26-98 85-98zm52 81c6-60-76-77-97-28-3 7-6 17-6 28h103" id="bT"/><path d="M114-163C36-179 61-72 57 0H25l-1-190h30c1 12-1 29 2 39 6-27 23-49 58-41v29" id="bU"/><g id="q"><use transform="matrix(0.04938271604938272,0,0,0.04938271604938272,0,0)" xlink:href="#bR"/><use transform="matrix(0.04938271604938272,0,0,0.04938271604938272,12.790123456790125,0)" xlink:href="#bS"/><use transform="matrix(0.04938271604938272,0,0,0.04938271604938272,21.679012345679013,0)" xlink:href="#bT"/><use transform="matrix(0.04938271604938272,0,0,0.04938271604938272,31.555555555555557,0)" xlink:href="#bU"/></g><path d="M30-248c87 1 191-15 191 75 0 78-77 80-158 76V0H30v-248zm33 125c57 0 124 11 124-50 0-59-68-47-124-48v98" id="bV"/><path d="M194 0L95-120 63-95V0H30v-248h33v124l119-124h40L117-140 236 0h-42" id="bW"/><g id="r"><use transform="matrix(0.05,0,0,0.05,0,0)" xlink:href="#bV"/><use transform="matrix(0.05,0,0,0.05,12,0)" xlink:href="#bW"/></g><path d="M24-231v-30h32v30H24zM24 0v-190h32V0H24" id="bX"/><path d="M85-194c31 0 48 13 60 33l-1-100h32l1 261h-30c-2-10 0-23-3-31C134-8 116 4 85 4 32 4 16-35 15-94c0-66 23-100 70-100zm9 24c-40 0-46 34-46 75 0 40 6 74 45 74 42 0 51-32 51-76 0-42-9-74-50-73" id="bY"/><g id="s"><use transform="matrix(0.05,0,0,0.05,0,0)" xlink:href="#bX"/><use transform="matrix(0.05,0,0,0.05,3.95,0)" xlink:href="#bY"/></g><path d="M59-47c-2 24 18 29 38 22v24C64 9 27 4 27-40v-127H5v-23h24l9-43h21v43h35v23H59v120" id="bZ"/><path d="M117-194c89-4 53 116 60 194h-32v-121c0-31-8-49-39-48C34-167 62-67 57 0H25l-1-190h30c1 10-1 24 2 32 11-22 29-35 61-36" id="ca"/><path d="M177-190C167-65 218 103 67 71c-23-6-38-20-44-43l32-5c15 47 100 32 89-28v-30C133-14 115 1 83 1 29 1 15-40 15-95c0-56 16-97 71-98 29-1 48 16 59 35 1-10 0-23 2-32h30zM94-22c36 0 50-32 50-73 0-42-14-75-50-75-39 0-46 34-46 75s6 73 46 73" id="cb"/><g id="t"><use transform="matrix(0.05,0,0,0.05,0,0)" xlink:href="#bS"/><use transform="matrix(0.05,0,0,0.05,9,0)" xlink:href="#bZ"/><use transform="matrix(0.05,0,0,0.05,14,0)" xlink:href="#bU"/><use transform="matrix(0.05,0,0,0.05,19.95,0)" xlink:href="#bX"/><use transform="matrix(0.05,0,0,0.05,23.9,0)" xlink:href="#ca"/><use transform="matrix(0.05,0,0,0.05,33.9,0)" xlink:href="#cb"/></g><path d="M141-36C126-15 110 5 73 4 37 3 15-17 15-53c-1-64 63-63 125-63 3-35-9-54-41-54-24 1-41 7-42 31l-33-3c5-37 33-52 76-52 45 0 72 20 72 64v82c-1 20 7 32 28 27v20c-31 9-61-2-59-35zM48-53c0 20 12 33 32 33 41-3 63-29 60-74-43 2-92-5-92 41" id="cc"/><path d="M210-169c-67 3-38 105-44 169h-31v-121c0-29-5-50-35-48C34-165 62-65 56 0H25l-1-190h30c1 10-1 24 2 32 10-44 99-50 107 0 11-21 27-35 58-36 85-2 47 119 55 194h-31v-121c0-29-5-49-35-48" id="cd"/><g id="u"><use transform="matrix(0.05,0,0,0.05,0,0)" xlink:href="#ca"/><use transform="matrix(0.05,0,0,0.05,10,0)" xlink:href="#cc"/><use transform="matrix(0.05,0,0,0.05,20,0)" xlink:href="#cd"/><use transform="matrix(0.05,0,0,0.05,34.95,0)" xlink:href="#bT"/></g><path d="M84 4C-5 8 30-112 23-190h32v120c0 31 7 50 39 49 72-2 45-101 50-169h31l1 190h-30c-1-10 1-25-2-33-11 22-28 36-60 37" id="ce"/><path d="M115-194c53 0 69 39 70 98 0 66-23 100-70 100C84 3 66-7 56-30L54 0H23l1-261h32v101c10-23 28-34 59-34zm-8 174c40 0 45-34 45-75 0-40-5-75-45-74-42 0-51 32-51 76 0 43 10 73 51 73" id="cf"/><g id="v"><use transform="matrix(0.05,0,0,0.05,0,0)" xlink:href="#ca"/><use transform="matrix(0.05,0,0,0.05,10,0)" xlink:href="#ce"/><use transform="matrix(0.05,0,0,0.05,20,0)" xlink:href="#cd"/><use transform="matrix(0.05,0,0,0.05,34.95,0)" xlink:href="#cf"/><use transform="matrix(0.05,0,0,0.05,44.95,0)" xlink:href="#bT"/><use transform="matrix(0.05,0,0,0.05,54.95,0)" xlink:href="#bU"/></g><path d="M87 75C49 33 22-17 22-94c0-76 28-126 65-167h31c-38 41-64 92-64 168S80 34 118 75H87" id="cg"/><use transform="matrix(0.05,0,0,0.05,0,0)" xlink:href="#cg" id="w"/><path d="M48-267c22 8 47-4 66-11l11 18-54 15 1 20h45v18H72l1 26h44v17H73l2 26h185l1-26h-43v-17h45l1-27h-45v-17h46l2-26h-49v-18h71l-7 131h27v58h-23v-40H52v40H29v-58h24zm69 283c15 3 44 11 44-7v-36H26v-18h135v-16c25 1 40-12 56-20H80v-17h167l13 13-76 40h128v18H184c1 39 7 67-44 67-6 0-12-1-18-2zm22-225c12 7 22 12 33 21 9-7 16-13 23-20l17 13c-8 7-15 13-23 19l24 19-14 16-27-22c-13 8-24 17-38 23l-13-16c12-6 23-13 34-20-10-7-20-13-28-18zm0-68c12 7 22 13 33 21l23-20 17 13-23 19c10 6 16 12 24 19l-14 15c-8-8-17-14-27-21-13 8-24 17-38 23l-13-17 34-19c-9-8-18-12-28-18" id="ch"/><use transform="matrix(0.05,0,0,0.05,0,0)" xlink:href="#ch" id="x"/><path d="M24-131c30-39 44-82 56-133l23 6c-6 19-8 34-15 51h69v-73h22v73h116v21H179v78h97v21h-97V8h132v21H27V8h130v-95H64v-21h93v-78H81c-11 26-23 46-39 69" id="ci"/><path d="M0 4l72-265h28L28 4H0" id="cj"/><g id="y"><use transform="matrix(0.05,0,0,0.05,0,0)" xlink:href="#ci"/><use transform="matrix(0.05,0,0,0.05,16.900000000000002,0)" xlink:href="#cj"/></g><path d="M52-17v-154h232v154H52zm15-178v-70h203v70H67zm8 159h187v-28H75v28zm15-178h157v-33H90v33zM75-81h187v-27H75v27zm0-45h187v-27H75v27zM302 41c-36-11-74-22-103-40l14-15c27 16 65 26 101 33zM24 22c35-7 72-19 98-36l15 16C109 20 71 33 35 42" id="ck"/><use transform="matrix(0.05,0,0,0.05,0,0)" xlink:href="#ck" id="z"/><path d="M28 18V-3h126v-231H48v-21h243v21H177V-3h133v21H28" id="cl"/><use transform="matrix(0.05,0,0,0.05,0,0)" xlink:href="#cl" id="A"/><path d="M138-257c59 0 116-8 162-21l12 18c-46 11-98 20-153 21v26h143v71H159c0 70-5 130-26 178l-17-16c31-68 19-178 22-277zM270 17c8 2 21 6 21-5v-46h-24v70h-18v-70h-23v70h-18v-70h-22v76h-20v-157h145V18c3 23-17 22-36 20zM113-91l-5-20-23 3V43H64v-149l-43 3-4-22h25l20-34c-15-20-29-36-45-54 8-13 15-16 24-2 11-20 23-41 30-65l19 7-35 74 17 20c13-23 22-46 33-70l18 8c-16 38-38 80-58 115l39-3-10-29 18-6c7 19 14 46 19 68zm46-104v34h122v-34H159zM19 15c8-29 11-63 13-99l19 4c-3 37-7 68-14 103zm92-101l14 71-17 6c-3-25-7-48-12-71zm156-10v44h24v-44h-24zm-41 44h23v-44h-23v44zm-40 0h22v-44h-22v44" id="cm"/><use transform="matrix(0.05,0,0,0.05,0,0)" xlink:href="#cm" id="B"/><path d="M238-116c26-1 54 5 51-25l22 7c1 33-21 38-58 38-38 0-57-5-51-46l-26 2-1-19 27-3v-29h-31c1 88 3 177-33 232l-18-17c35-53 28-147 29-234h63v-70h23v22h62v20h-62v28c29 2 68-6 83 9l-18 51-21-6 14-35h-69v28l47-4 1 18-48 5c0 15-2 29 14 28zM34-171v-96h93v96H34zM45 10c17 3 43 11 48-9 5-19 7-44 7-72H56l-7 20-20-6c9-23 14-45 21-67H22v-20h114v20H72c-2 12-5 22-9 33h61c-7 64 9 146-76 124zm233 5c21 0 16-23 18-39l22 7c-3 28-4 53-41 53-23 0-40-1-39-24v-94h22V5c1 10 5 10 18 10zM57-190h48v-59H57v59zM158 24c26-24 40-55 37-107l21 2c1 57-11 98-43 123" id="cn"/><path d="M33-261c38 41 65 92 65 168S71 34 33 75H2C39 34 66-17 66-93S39-220 2-261h31" id="co"/><g id="C"><use transform="matrix(0.05,0,0,0.05,0,0)" xlink:href="#cn"/><use transform="matrix(0.05,0,0,0.05,16.900000000000002,0)" xlink:href="#co"/></g><g id="D"><use transform="matrix(0.05,0,0,0.05,0,0)" xlink:href="#bX"/><use transform="matrix(0.05,0,0,0.05,3.95,0)" xlink:href="#ca"/><use transform="matrix(0.05,0,0,0.05,13.949999999999998,0)" xlink:href="#bZ"/><use transform="matrix(0.05,0,0,0.05,18.95,0)" xlink:href="#bT"/><use transform="matrix(0.05,0,0,0.05,28.950000000000003,0)" xlink:href="#cb"/><use transform="matrix(0.05,0,0,0.05,38.95,0)" xlink:href="#bT"/><use transform="matrix(0.05,0,0,0.05,48.95,0)" xlink:href="#bU"/></g><path d="M100-194c62-1 85 37 85 99 1 63-27 99-86 99S16-35 15-95c0-66 28-99 85-99zM99-20c44 1 53-31 53-75 0-43-8-75-51-75s-53 32-53 75 10 74 51 75" id="cp"/><path d="M24 0v-261h32V0H24" id="cq"/><g id="E"><use transform="matrix(0.05,0,0,0.05,0,0)" xlink:href="#bU"/><use transform="matrix(0.05,0,0,0.05,5.95,0)" xlink:href="#cp"/><use transform="matrix(0.05,0,0,0.05,15.949999999999998,0)" xlink:href="#cq"/><use transform="matrix(0.05,0,0,0.05,19.9,0)" xlink:href="#bT"/></g><g id="F"><use transform="matrix(0.05,0,0,0.05,0,0)" xlink:href="#bT"/><use transform="matrix(0.05,0,0,0.05,10,0)" xlink:href="#cd"/><use transform="matrix(0.05,0,0,0.05,24.950000000000003,0)" xlink:href="#cc"/><use transform="matrix(0.05,0,0,0.05,34.95,0)" xlink:href="#bX"/><use transform="matrix(0.05,0,0,0.05,38.900000000000006,0)" xlink:href="#cq"/></g><path d="M115-194c55 1 70 41 70 98S169 2 115 4C84 4 66-9 55-30l1 105H24l-1-265h31l2 30c10-21 28-34 59-34zm-8 174c40 0 45-34 45-75s-6-73-45-74c-42 0-51 32-51 76 0 43 10 73 51 73" id="cr"/><path d="M206 0h-36l-40-164L89 0H53L-1-190h32L70-26l43-164h34l41 164 42-164h31" id="cs"/><g id="G"><use transform="matrix(0.05,0,0,0.05,0,0)" xlink:href="#cr"/><use transform="matrix(0.05,0,0,0.05,10,0)" xlink:href="#cc"/><use transform="matrix(0.05,0,0,0.05,20,0)" xlink:href="#bS"/><use transform="matrix(0.05,0,0,0.05,29,0)" xlink:href="#bS"/><use transform="matrix(0.05,0,0,0.05,38,0)" xlink:href="#cs"/><use transform="matrix(0.05,0,0,0.05,50.95,0)" xlink:href="#cp"/><use transform="matrix(0.05,0,0,0.05,60.95,0)" xlink:href="#bU"/><use transform="matrix(0.05,0,0,0.05,66.9,0)" xlink:href="#bY"/></g><path d="M106-169C34-169 62-67 57 0H25v-261h32l-1 103c12-21 28-36 61-36 89 0 53 116 60 194h-32v-121c2-32-8-49-39-48" id="ct"/><g id="H"><use transform="matrix(0.05,0,0,0.05,0,0)" xlink:href="#cr"/><use transform="matrix(0.05,0,0,0.05,10,0)" xlink:href="#ct"/><use transform="matrix(0.05,0,0,0.05,20,0)" xlink:href="#cp"/><use transform="matrix(0.05,0,0,0.05,30,0)" xlink:href="#ca"/><use transform="matrix(0.05,0,0,0.05,40,0)" xlink:href="#bT"/></g><g id="I"><use transform="matrix(0.05,0,0,0.05,0,0)" xlink:href="#cb"/><use transform="matrix(0.05,0,0,0.05,10,0)" xlink:href="#bT"/><use transform="matrix(0.05,0,0,0.05,20,0)" xlink:href="#ca"/><use transform="matrix(0.05,0,0,0.05,30,0)" xlink:href="#bY"/><use transform="matrix(0.05,0,0,0.05,40,0)" xlink:href="#bT"/><use transform="matrix(0.05,0,0,0.05,50,0)" xlink:href="#bU"/></g><path d="M233-177c-1 41-23 64-60 70L243 0h-38l-65-103H63V0H30v-248c88 3 205-21 203 71zM63-129c60-2 137 13 137-47 0-61-80-42-137-45v92" id="cu"/><path d="M179-190L93 31C79 59 56 82 12 73V49c39 6 53-20 64-50L1-190h34L92-34l54-156h33" id="cv"/><path d="M127-220V0H93v-220H8v-28h204v28h-85" id="cw"/><path d="M33 0v-248h34V0H33" id="cx"/><g id="J"><use transform="matrix(0.04938271604938272,0,0,0.04938271604938272,0,0)" xlink:href="#cu"/><use transform="matrix(0.04938271604938272,0,0,0.04938271604938272,12.790123456790125,0)" xlink:href="#bT"/><use transform="matrix(0.04938271604938272,0,0,0.04938271604938272,22.66666666666667,0)" xlink:href="#cr"/><use transform="matrix(0.04938271604938272,0,0,0.04938271604938272,32.543209876543216,0)" xlink:href="#cq"/><use transform="matrix(0.04938271604938272,0,0,0.04938271604938272,36.44444444444445,0)" xlink:href="#cv"/><use transform="matrix(0.04938271604938272,0,0,0.04938271604938272,45.33333333333334,0)" xlink:href="#cw"/><use transform="matrix(0.04938271604938272,0,0,0.04938271604938272,54.17283950617284,0)" xlink:href="#cp"/><use transform="matrix(0.04938271604938272,0,0,0.04938271604938272,64.0493827160494,0)" xlink:href="#cx"/><use transform="matrix(0.04938271604938272,0,0,0.04938271604938272,68.98765432098767,0)" xlink:href="#bS"/><use transform="matrix(0.04938271604938272,0,0,0.04938271604938272,77.87654320987656,0)" xlink:href="#bS"/><use transform="matrix(0.04938271604938272,0,0,0.04938271604938272,86.76543209876544,0)" xlink:href="#ce"/><use transform="matrix(0.04938271604938272,0,0,0.04938271604938272,96.64197530864199,0)" xlink:href="#bT"/></g><path d="M63-220v92h138v28H63V0H30v-248h175v28H63" id="cy"/><g id="K"><use transform="matrix(0.05,0,0,0.05,0,0)" xlink:href="#cy"/><use transform="matrix(0.05,0,0,0.05,10.950000000000001,0)" xlink:href="#bW"/></g><path d="M-5 72V49h209v23H-5" id="cz"/><g id="L"><use transform="matrix(0.05,0,0,0.05,0,0)" xlink:href="#ce"/><use transform="matrix(0.05,0,0,0.05,10,0)" xlink:href="#bS"/><use transform="matrix(0.05,0,0,0.05,19,0)" xlink:href="#bT"/><use transform="matrix(0.05,0,0,0.05,29,0)" xlink:href="#bU"/><use transform="matrix(0.05,0,0,0.05,34.95,0)" xlink:href="#cz"/><use transform="matrix(0.05,0,0,0.05,44.95,0)" xlink:href="#bX"/><use transform="matrix(0.05,0,0,0.05,48.900000000000006,0)" xlink:href="#bY"/></g><g id="M"><use transform="matrix(0.05,0,0,0.05,0,0)" xlink:href="#bZ"/><use transform="matrix(0.05,0,0,0.05,5,0)" xlink:href="#bX"/><use transform="matrix(0.05,0,0,0.05,8.95,0)" xlink:href="#bZ"/><use transform="matrix(0.05,0,0,0.05,13.949999999999998,0)" xlink:href="#cq"/><use transform="matrix(0.05,0,0,0.05,17.9,0)" xlink:href="#bT"/></g><path d="M141 0L90-78 38 0H4l68-98-65-92h35l48 74 47-74h35l-64 92 68 98h-35" id="cA"/><g id="N"><use transform="matrix(0.05,0,0,0.05,0,0)" xlink:href="#bZ"/><use transform="matrix(0.05,0,0,0.05,5,0)" xlink:href="#bT"/><use transform="matrix(0.05,0,0,0.05,15,0)" xlink:href="#cA"/><use transform="matrix(0.05,0,0,0.05,24,0)" xlink:href="#bZ"/></g><path d="M96-169c-40 0-48 33-48 73s9 75 48 75c24 0 41-14 43-38l32 2c-6 37-31 61-74 61-59 0-76-41-82-99-10-93 101-131 147-64 4 7 5 14 7 22l-32 3c-4-21-16-35-41-35" id="cB"/><g id="O"><use transform="matrix(0.05,0,0,0.05,0,0)" xlink:href="#cB"/><use transform="matrix(0.05,0,0,0.05,9,0)" xlink:href="#cp"/><use transform="matrix(0.05,0,0,0.05,19,0)" xlink:href="#ca"/><use transform="matrix(0.05,0,0,0.05,29,0)" xlink:href="#bZ"/><use transform="matrix(0.05,0,0,0.05,34,0)" xlink:href="#bT"/><use transform="matrix(0.05,0,0,0.05,44,0)" xlink:href="#ca"/><use transform="matrix(0.05,0,0,0.05,54,0)" xlink:href="#bZ"/></g><path d="M185-189c-5-48-123-54-124 2 14 75 158 14 163 119 3 78-121 87-175 55-17-10-28-26-33-46l33-7c5 56 141 63 141-1 0-78-155-14-162-118-5-82 145-84 179-34 5 7 8 16 11 25" id="cC"/><g id="P"><use transform="matrix(0.04938271604938272,0,0,0.04938271604938272,0,0)" xlink:href="#cC"/><use transform="matrix(0.04938271604938272,0,0,0.04938271604938272,11.851851851851853,0)" xlink:href="#cc"/><use transform="matrix(0.04938271604938272,0,0,0.04938271604938272,21.7283950617284,0)" xlink:href="#cq"/><use transform="matrix(0.04938271604938272,0,0,0.04938271604938272,25.629629629629633,0)" xlink:href="#cc"/><use transform="matrix(0.04938271604938272,0,0,0.04938271604938272,35.50617283950618,0)" xlink:href="#bU"/><use transform="matrix(0.04938271604938272,0,0,0.04938271604938272,41.38271604938272,0)" xlink:href="#cv"/></g><g id="Q"><use transform="matrix(0.05,0,0,0.05,0,0)" xlink:href="#bY"/><use transform="matrix(0.05,0,0,0.05,10,0)" xlink:href="#cc"/><use transform="matrix(0.05,0,0,0.05,20,0)" xlink:href="#bZ"/><use transform="matrix(0.05,0,0,0.05,25,0)" xlink:href="#bT"/><use transform="matrix(0.05,0,0,0.05,35,0)" xlink:href="#bZ"/><use transform="matrix(0.05,0,0,0.05,40,0)" xlink:href="#bX"/><use transform="matrix(0.05,0,0,0.05,43.95,0)" xlink:href="#cd"/><use transform="matrix(0.05,0,0,0.05,58.900000000000006,0)" xlink:href="#bT"/></g><g id="R"><use transform="matrix(0.05,0,0,0.05,0,0)" xlink:href="#bY"/><use transform="matrix(0.05,0,0,0.05,10,0)" xlink:href="#cc"/><use transform="matrix(0.05,0,0,0.05,20,0)" xlink:href="#bZ"/><use transform="matrix(0.05,0,0,0.05,25,0)" xlink:href="#bT"/></g><g id="S"><use transform="matrix(0.05,0,0,0.05,0,0)" xlink:href="#ct"/><use transform="matrix(0.05,0,0,0.05,10,0)" xlink:href="#bU"/></g><path d="M93-5v-23H53V3H31v-261h85V-5H93zm107 16c15 1 52 14 52-7v-93H127v-20h125v-41H126v-20h81v-47h-69v-20h69v-42h23v42h73v20h-73v47h88v20h-43v41h39v20h-39v99c4 36-41 27-70 24zM53-49h40v-89H53v89zm0-108h40v-81H53v81zm113 83c17 18 27 31 42 52L190-8c-11-19-25-37-41-52" id="cD"/><g id="T"><use transform="matrix(0.05,0,0,0.05,0,0)" xlink:href="#cD"/><use transform="matrix(0.05,0,0,0.05,16.900000000000002,0)" xlink:href="#co"/></g><g id="U"><use transform="matrix(0.05,0,0,0.05,0,0)" xlink:href="#ct"/><use transform="matrix(0.05,0,0,0.05,10,0)" xlink:href="#cp"/><use transform="matrix(0.05,0,0,0.05,20,0)" xlink:href="#ce"/><use transform="matrix(0.05,0,0,0.05,30,0)" xlink:href="#bU"/><use transform="matrix(0.05,0,0,0.05,35.95,0)" xlink:href="#cq"/><use transform="matrix(0.05,0,0,0.05,39.900000000000006,0)" xlink:href="#cv"/><use transform="matrix(0.05,0,0,0.05,48.900000000000006,0)" xlink:href="#cz"/><use transform="matrix(0.05,0,0,0.05,58.900000000000006,0)" xlink:href="#cs"/><use transform="matrix(0.05,0,0,0.05,71.85000000000001,0)" xlink:href="#cc"/><use transform="matrix(0.05,0,0,0.05,81.85000000000001,0)" xlink:href="#cb"/><use transform="matrix(0.05,0,0,0.05,91.85000000000001,0)" xlink:href="#bT"/></g><use transform="matrix(0.05,0,0,0.05,0,0)" xlink:href="#cD" id="V"/><path d="M114-64c12 23 32 43 51 57l-13 20c-17-15-31-33-43-52 2 26 2 53 2 81H88l1-81C74-17 56 4 33 21L20 2c24-18 48-40 64-66H29v-18h59v-28H21v-19h39l-9-42H30v-19h59v-27h20v-20H26v-19h83v-24h22v24h76v-24h22v24h85v19h-85v24h-22v-24h-76v24h-20v23h56v19h-19l-9 42h37v19h-65v28h56v18h-53zm39 93c40-46 32-134 33-220 39-7 83-8 116-21l12 19c-29 10-70 16-105 20v49h108v19h-43V42h-22v-147h-43c0 64-10 113-38 149zM81-129h37l8-42H73" id="cE"/><g id="W"><use transform="matrix(0.05,0,0,0.05,0,0)" xlink:href="#cE"/><use transform="matrix(0.05,0,0,0.05,16.900000000000002,0)" xlink:href="#co"/></g><path d="M75-17c87 13 134-18 134-103 0-78-51-106-134-100v203zm171-102C246 5 139 7 10 0v-9l31-5v-208l-31-4v-10h107c82 0 129 35 129 117" id="cF"/><path d="M84-170c49 0 66 33 63 87H46c-8 60 38 80 95 63v10C128-2 108 4 88 4 34 4 14-29 14-84c-1-54 22-86 70-86zm33 73c12-57-57-82-69-24-1 7-2 15-2 24h71" id="cG"/><path d="M166-85c3 67-44 102-111 85l1 64 29 4v9H6v-9l21-4v-217c-7-3-22 1-19-12h46l1 9c11-8 26-14 45-14 47 2 64 36 66 85zM56-13c53 14 83-14 78-72 7-53-33-79-78-60v132" id="cH"/><path d="M32-163c41-10 102-14 102 39v112c8 3 24-2 21 12h-45l-4-17C83 13 3 13 13-46c-2-50 45-50 92-51 4-36-5-70-42-56-6 2-12 4-16 6-4 7 0 23-15 20v-36zM42-47c0 41 41 33 63 22v-59c-34 1-63-1-63 37" id="cI"/><path d="M57-145c16-10 35-24 60-25v45c-19 1-8-30-40-17l-20 6v124l29 4v8H7v-8l21-4v-141c-8-3-24 2-21-12h48" id="cJ"/><path d="M54-38c-1 25 24 26 44 20v12C71 10 25 9 25-35v-115H4c-2-14 14-10 21-15l18-38h11v38h38v15H54v112" id="cK"/><path d="M126-118c4-37-42-32-68-25v131l24 4v8H8C5-13 21-9 28-12v-141c-7-3-23 1-20-12h48l1 13c22-15 77-30 92 2 32-22 104-36 104 29v109c8 3 24-2 21 12h-75v-8l25-4v-106c3-39-45-31-72-24 7 37 1 88 3 130l25 4v8h-78v-8l24-4v-106" id="cL"/><path d="M125-118c4-37-41-34-68-26v132l23 4v8H8C5-13 21-9 28-12v-141c-7-3-23 1-20-12h47l2 13c31-23 98-29 98 31v109c7 3 23-1 20 12h-72v-8l22-4v-106" id="cM"/><g id="X"><use transform="matrix(0.04938271604938272,0,0,0.04938271604938272,0,0)" xlink:href="#cF"/><use transform="matrix(0.04938271604938272,0,0,0.04938271604938272,12.790123456790125,0)" xlink:href="#cG"/><use transform="matrix(0.04938271604938272,0,0,0.04938271604938272,20.641975308641978,0)" xlink:href="#cH"/><use transform="matrix(0.04938271604938272,0,0,0.04938271604938272,29.530864197530867,0)" xlink:href="#cI"/><use transform="matrix(0.04938271604938272,0,0,0.04938271604938272,37.38271604938272,0)" xlink:href="#cJ"/><use transform="matrix(0.04938271604938272,0,0,0.04938271604938272,43.25925925925927,0)" xlink:href="#cK"/><use transform="matrix(0.04938271604938272,0,0,0.04938271604938272,48.19753086419754,0)" xlink:href="#cL"/><use transform="matrix(0.04938271604938272,0,0,0.04938271604938272,62.0246913580247,0)" xlink:href="#cG"/><use transform="matrix(0.04938271604938272,0,0,0.04938271604938272,69.87654320987654,0)" xlink:href="#cM"/><use transform="matrix(0.04938271604938272,0,0,0.04938271604938272,78.76543209876543,0)" xlink:href="#cK"/></g><path d="M319-222L242 5h-10l-61-162L108 5h-9L21-222l-21-4v-10h90v10l-34 4 56 166 63-163h8l61 163 54-166-37-4v-10h78v10" id="cN"/><path d="M47-200c-23 0-25-39 0-38 13 0 18 7 20 19-1 11-8 19-20 19zM65-12l28 4v8H8v-8l28-4v-141l-24-4v-8h53v153" id="cO"/><path d="M126-119c3-38-42-31-69-25v132l23 4v8H7v-8l21-4v-226l-24-4v-8h53l-1 98c31-22 99-31 99 31v109c7 3 23-1 20 12h-71v-8l22-4v-107" id="cP"/><path d="M134-16c44-1 70-21 70-64v-142l-32-4v-10h80v10l-30 4v141c0 57-33 84-91 85-58 0-93-26-93-82v-144l-30-4v-10h94v10l-30 4c7 82-31 209 62 206" id="cQ"/><path d="M41-130c7 48 86 23 86 84 0 56-69 57-112 41v-40c20 0 9 29 31 31 35 19 77-26 41-50-27-18-72-13-72-59 0-50 58-52 100-41v36c-19 1-8-25-28-25-21-7-50-1-46 23" id="cR"/><g id="Y"><use transform="matrix(0.04938271604938272,0,0,0.04938271604938272,0,0)" xlink:href="#cF"/><use transform="matrix(0.04938271604938272,0,0,0.04938271604938272,12.790123456790125,0)" xlink:href="#cG"/><use transform="matrix(0.04938271604938272,0,0,0.04938271604938272,20.641975308641978,0)" xlink:href="#cH"/><use transform="matrix(0.04938271604938272,0,0,0.04938271604938272,29.530864197530867,0)" xlink:href="#cI"/><use transform="matrix(0.04938271604938272,0,0,0.04938271604938272,37.38271604938272,0)" xlink:href="#cJ"/><use transform="matrix(0.04938271604938272,0,0,0.04938271604938272,43.25925925925927,0)" xlink:href="#cK"/><use transform="matrix(0.04938271604938272,0,0,0.04938271604938272,48.19753086419754,0)" xlink:href="#cL"/><use transform="matrix(0.04938271604938272,0,0,0.04938271604938272,62.0246913580247,0)" xlink:href="#cG"/><use transform="matrix(0.04938271604938272,0,0,0.04938271604938272,69.87654320987654,0)" xlink:href="#cM"/><use transform="matrix(0.04938271604938272,0,0,0.04938271604938272,78.76543209876543,0)" xlink:href="#cK"/><use transform="matrix(0.04938271604938272,0,0,0.04938271604938272,83.7037037037037,0)" xlink:href="#cN"/><use transform="matrix(0.04938271604938272,0,0,0.04938271604938272,99.75308641975309,0)" xlink:href="#cO"/><use transform="matrix(0.04938271604938272,0,0,0.04938271604938272,104.69135802469137,0)" xlink:href="#cK"/><use transform="matrix(0.04938271604938272,0,0,0.04938271604938272,109.62962962962963,0)" xlink:href="#cP"/><use transform="matrix(0.04938271604938272,0,0,0.04938271604938272,118.51851851851853,0)" xlink:href="#cQ"/><use transform="matrix(0.04938271604938272,0,0,0.04938271604938272,131.30864197530866,0)" xlink:href="#cR"/><use transform="matrix(0.04938271604938272,0,0,0.04938271604938272,138.22222222222223,0)" xlink:href="#cG"/><use transform="matrix(0.04938271604938272,0,0,0.04938271604938272,146.07407407407408,0)" xlink:href="#cJ"/></g><path d="M13-81c0-71 46-101 114-85l-1-72-28-4v-8h57v238c8 3 24-2 21 12h-47l-2-12C80 23 13-1 13-81zm77-74c-37 1-44 33-45 74 0 38 9 66 45 66 14 0 27-3 36-7v-130c-10-1-24-3-36-3" id="cS"/><path d="M-3 46V28h186v18H-3" id="cT"/><g id="Z"><use transform="matrix(0.04938271604938272,0,0,0.04938271604938272,0,0)" xlink:href="#cS"/><use transform="matrix(0.04938271604938272,0,0,0.04938271604938272,8.88888888888889,0)" xlink:href="#cG"/><use transform="matrix(0.04938271604938272,0,0,0.04938271604938272,16.74074074074074,0)" xlink:href="#cH"/><use transform="matrix(0.04938271604938272,0,0,0.04938271604938272,25.629629629629633,0)" xlink:href="#cI"/><use transform="matrix(0.04938271604938272,0,0,0.04938271604938272,33.48148148148148,0)" xlink:href="#cJ"/><use transform="matrix(0.04938271604938272,0,0,0.04938271604938272,39.358024691358025,0)" xlink:href="#cK"/><use transform="matrix(0.04938271604938272,0,0,0.04938271604938272,44.2962962962963,0)" xlink:href="#cL"/><use transform="matrix(0.04938271604938272,0,0,0.04938271604938272,58.12345679012345,0)" xlink:href="#cG"/><use transform="matrix(0.04938271604938272,0,0,0.04938271604938272,65.9753086419753,0)" xlink:href="#cM"/><use transform="matrix(0.04938271604938272,0,0,0.04938271604938272,74.86419753086419,0)" xlink:href="#cK"/><use transform="matrix(0.04938271604938272,0,0,0.04938271604938272,79.80246913580245,0)" xlink:href="#cT"/><use transform="matrix(0.04938271604938272,0,0,0.04938271604938272,88.69135802469134,0)" xlink:href="#cO"/><use transform="matrix(0.04938271604938272,0,0,0.04938271604938272,93.62962962962962,0)" xlink:href="#cS"/></g><path d="M56-182c12-3 11-22 1-31-6-5-16-19-28-23 10 19 12 22 18 45 2 5 5 9 9 9zm100 29c-1-5-10-7-13-12h51c8 1 8-9 1-10-8-5-14-10-18-16l-15 17c-9-1-23 2-30-1 14-13 29-30 44-51 6-2 13-6 2-9-6-1-11-4-17-8-4 17-14 36-29 59 1-23-3-52 5-66-5-3-16-3-23-6 6 21 2 56 3 82H92c1-26-4-59 5-76l-23-6c6 21 2 56 3 82H18c2 13 22 8 36 9 12 18 9 37 22 56H25l5 9h66v50H32l5 9h59v54c-24 4-53 7-74 9 6 4 13 40 23 24 38-16 78-22 138-47l-3-3c-25 6-48 10-68 14v-51h54c8 1 9-8 2-10-8-5-14-10-18-16l-15 17h-23v-50h67c8 1 8-9 1-10-8-5-14-10-18-16l-15 17h-25c15-9 21-31 34-44zm-72 44c13-22-11-42-25-56h77c-5 22-12 41-23 56H84zM257 51c10 9 29-14 29-31v-167c14-1 56 6 40-10-8-5-14-10-18-16-8 5-9 17-22 17 3-29-7-75 8-88-6-6-20-3-29-8 6 25 2 66 3 96h-74l5 9h69V20c-2 11-33 5-43 4v4c17 4 28 12 32 23zM218-52c4 14 20 9 18-7-3-20-20-34-37-44 12 21 11 25 19 51" id="cU"/><use transform="matrix(0.04938271604938272,0,0,0.04938271604938272,0,0)" xlink:href="#cU" id="aa"/><path d="M132-207c-2-9 26-13 8-20-5-3-10-8-15-13-13 17-66 13-84 0 10 64 1 145 4 216 3 7 13-2 17-4v-20h53c1 5-3 15 3 15 4-2 13-2 14-6v-168zM62-57v-79h53v79H62zm0-88v-76h53v76H62zm253-65c0-7 21-10 5-16-4-2-8-7-12-14l-13 10H150l5 9h58c-14 58-33 75-76 99 60-12 74-42 94-99h67c-6 51-3 71-56 58v3c14 4 21 14 29 24 36-16 29-23 44-74zM301-94c-1-9 25-13 8-21-5-3-10-6-15-12l-11 9c-40-3-94 8-120-9 12 27-1 74 7 106l14-7v-16h100c-2 11 4 13 13 8 10-11 1-40 4-58zM184-53v-55h100v55H184zM73-15c-4 26-32 38-43 59 7 15 22 9 32-7 7-12 12-29 15-52h-4zm71 64c7 0 15-12 14-20 0-8-10-23-30-44l-3 2c8 14 11 31 11 51 0 7 3 11 8 11zm77-5c14-3 13-23 1-33-7-6-18-22-33-26 13 21 16 25 23 51 2 5 5 8 9 8zm89 6c14-5 13-27-2-37-9-6-25-22-44-28 21 22 24 26 36 55 2 6 5 10 10 10" id="cV"/><use transform="matrix(0.04938271604938272,0,0,0.04938271604938272,0,0)" xlink:href="#cV" id="ab"/><path d="M224-29c26-11 48-29 73-43-4-7-12-8-18-17-18 23-37 42-58 56-16-19-28-40-39-68h138c9 0 10-9 1-11-8-5-14-11-19-17l-16 18H183v-41h96c8 0 10-8 2-11-8-5-15-9-19-15l-15 16h-64v-42h115c7 0 11-8 2-11-8-5-15-11-20-17l-16 18h-81c-2-18 3-27 6-37l-26-8c4 10 3 30 3 45H50l5 10h111v42H65l5 10h96v41H29l5 10h117C116-56 76-31 21-9l1 4c37-11 68-25 93-42v69c-18 5-40 8-56 9 6 4 12 37 21 22 33-16 68-23 120-48l-2-3c-25 7-46 13-65 17v-79c14-11 27-25 40-41h3c23 76 63 117 121 147 8-10 22-11 33-15-47-14-77-31-106-60" id="cW"/><use transform="matrix(0.04938271604938272,0,0,0.04938271604938272,0,0)" xlink:href="#cW" id="ac"/><path d="M13-71v-27h94v27H13" id="cX"/><use transform="matrix(0.04938271604938272,0,0,0.04938271604938272,0,0)" xlink:href="#cX" id="ad"/><g id="ae"><use transform="matrix(0.04938271604938272,0,0,0.04938271604938272,0,0)" xlink:href="#cQ"/><use transform="matrix(0.04938271604938272,0,0,0.04938271604938272,12.790123456790125,0)" xlink:href="#cR"/><use transform="matrix(0.04938271604938272,0,0,0.04938271604938272,19.703703703703706,0)" xlink:href="#cG"/><use transform="matrix(0.04938271604938272,0,0,0.04938271604938272,27.555555555555557,0)" xlink:href="#cJ"/></g><path d="M90-170c52 0 76 32 76 87 0 54-24 87-77 87-51 0-75-34-75-87 0-54 24-87 76-87zM89-10c39 0 46-35 46-73 0-39-7-73-46-73-39 1-44 34-44 73s6 72 44 73" id="cY"/><path d="M65-12l28 4v8H7v-8l28-4v-226l-28-4v-8h58v238" id="cZ"/><g id="af"><use transform="matrix(0.04938271604938272,0,0,0.04938271604938272,0,0)" xlink:href="#cJ"/><use transform="matrix(0.04938271604938272,0,0,0.04938271604938272,5.8765432098765435,0)" xlink:href="#cY"/><use transform="matrix(0.04938271604938272,0,0,0.04938271604938272,14.765432098765434,0)" xlink:href="#cZ"/><use transform="matrix(0.04938271604938272,0,0,0.04938271604938272,19.703703703703706,0)" xlink:href="#cG"/></g><path d="M101-251c68 0 85 55 85 127S166 4 100 4C33 4 14-52 14-124c0-73 17-127 87-127zm-1 229c47 0 54-49 54-102s-4-102-53-102c-51 0-55 48-55 102 0 53 5 102 54 102" id="da"/><use transform="matrix(0.05,0,0,0.05,0,0)" xlink:href="#da" id="ag"/><g id="ah"><use transform="matrix(0.05,0,0,0.05,0,0)" xlink:href="#cc"/><use transform="matrix(0.05,0,0,0.05,10,0)" xlink:href="#bY"/><use transform="matrix(0.05,0,0,0.05,20,0)" xlink:href="#cd"/><use transform="matrix(0.05,0,0,0.05,34.95,0)" xlink:href="#bX"/><use transform="matrix(0.05,0,0,0.05,38.900000000000006,0)" xlink:href="#ca"/></g><path d="M27 0v-27h64v-190l-56 39v-29l58-41h29v221h61V0H27" id="db"/><use transform="matrix(0.05,0,0,0.05,0,0)" xlink:href="#db" id="ai"/><path d="M101-234c-31-9-42 10-38 44h38v23H63V0H32v-167H5v-23h27c-7-52 17-82 69-68v24" id="dc"/><g id="aj"><use transform="matrix(0.05,0,0,0.05,0,0)" xlink:href="#bS"/><use transform="matrix(0.05,0,0,0.05,9,0)" xlink:href="#bZ"/><use transform="matrix(0.05,0,0,0.05,14,0)" xlink:href="#cc"/><use transform="matrix(0.05,0,0,0.05,24,0)" xlink:href="#dc"/><use transform="matrix(0.05,0,0,0.05,28.649999999999995,0)" xlink:href="#dc"/></g><path d="M101-251c82-7 93 87 43 132L82-64C71-53 59-42 53-27h129V0H18c2-99 128-94 128-182 0-28-16-43-45-43s-46 15-49 41l-32-3c6-41 34-60 81-64" id="dd"/><use transform="matrix(0.05,0,0,0.05,0,0)" xlink:href="#dd" id="ak"/><g id="al"><use transform="matrix(0.05,0,0,0.05,0,0)" xlink:href="#bS"/><use transform="matrix(0.05,0,0,0.05,9,0)" xlink:href="#bZ"/><use transform="matrix(0.05,0,0,0.05,14,0)" xlink:href="#ce"/><use transform="matrix(0.05,0,0,0.05,24,0)" xlink:href="#bY"/><use transform="matrix(0.05,0,0,0.05,34,0)" xlink:href="#bT"/><use transform="matrix(0.05,0,0,0.05,44,0)" xlink:href="#ca"/><use transform="matrix(0.05,0,0,0.05,54,0)" xlink:href="#bZ"/></g><path d="M141-152c28 39 5 97-54 97-9 0-20-2-27-3L49-35c29 22 130-14 124 52-4 45-38 57-88 61C21 83-8 26 45-2 33-6 22-15 21-31l28-31c-19-9-28-26-28-51-2-51 53-65 100-52l38-20 7 8zM85 64c35 0 61-11 61-42 0-35-57-17-89-21-9 8-16 19-17 34 0 25 19 29 45 29zM52-113c1 26 7 46 35 44 28-1 34-16 35-44 0-26-6-43-34-43s-36 17-36 43" id="de"/><g id="am"><use transform="matrix(0.04938271604938272,0,0,0.04938271604938272,0,0)" xlink:href="#de"/><use transform="matrix(0.04938271604938272,0,0,0.04938271604938272,8.88888888888889,0)" xlink:href="#cG"/><use transform="matrix(0.04938271604938272,0,0,0.04938271604938272,16.74074074074074,0)" xlink:href="#cM"/><use transform="matrix(0.04938271604938272,0,0,0.04938271604938272,25.629629629629633,0)" xlink:href="#cS"/><use transform="matrix(0.04938271604938272,0,0,0.04938271604938272,34.51851851851852,0)" xlink:href="#cG"/><use transform="matrix(0.04938271604938272,0,0,0.04938271604938272,42.370370370370374,0)" xlink:href="#cJ"/></g><path d="M240 0l2-218c-23 76-54 145-80 218h-23L58-218 59 0H30v-248h44l77 211c21-75 51-140 76-211h43V0h-30" id="df"/><g id="an"><use transform="matrix(0.05,0,0,0.05,0,0)" xlink:href="#df"/><use transform="matrix(0.05,0,0,0.05,14.950000000000001,0)" xlink:href="#cc"/><use transform="matrix(0.05,0,0,0.05,24.950000000000003,0)" xlink:href="#cq"/><use transform="matrix(0.05,0,0,0.05,28.900000000000002,0)" xlink:href="#bT"/></g><g id="ao"><use transform="matrix(0.05,0,0,0.05,0,0)" xlink:href="#cy"/><use transform="matrix(0.05,0,0,0.05,10.950000000000001,0)" xlink:href="#bT"/><use transform="matrix(0.05,0,0,0.05,20.950000000000003,0)" xlink:href="#cd"/><use transform="matrix(0.05,0,0,0.05,35.900000000000006,0)" xlink:href="#cc"/><use transform="matrix(0.05,0,0,0.05,45.900000000000006,0)" xlink:href="#cq"/><use transform="matrix(0.05,0,0,0.05,49.85000000000001,0)" xlink:href="#bT"/></g><g id="ap"><use transform="matrix(0.04938271604938272,0,0,0.04938271604938272,0,0)" xlink:href="#cF"/><use transform="matrix(0.04938271604938272,0,0,0.04938271604938272,12.790123456790125,0)" xlink:href="#cG"/><use transform="matrix(0.04938271604938272,0,0,0.04938271604938272,20.641975308641978,0)" xlink:href="#cH"/><use transform="matrix(0.04938271604938272,0,0,0.04938271604938272,29.530864197530867,0)" xlink:href="#cI"/><use transform="matrix(0.04938271604938272,0,0,0.04938271604938272,37.38271604938272,0)" xlink:href="#cJ"/><use transform="matrix(0.04938271604938272,0,0,0.04938271604938272,43.25925925925927,0)" xlink:href="#cK"/><use transform="matrix(0.04938271604938272,0,0,0.04938271604938272,48.19753086419754,0)" xlink:href="#cL"/><use transform="matrix(0.04938271604938272,0,0,0.04938271604938272,62.0246913580247,0)" xlink:href="#cG"/><use transform="matrix(0.04938271604938272,0,0,0.04938271604938272,69.87654320987654,0)" xlink:href="#cM"/><use transform="matrix(0.04938271604938272,0,0,0.04938271604938272,78.76543209876543,0)" xlink:href="#cK"/></g><g id="aq"><use transform="matrix(0.04938271604938272,0,0,0.04938271604938272,0,0)" xlink:href="#cM"/><use transform="matrix(0.04938271604938272,0,0,0.04938271604938272,8.88888888888889,0)" xlink:href="#cI"/><use transform="matrix(0.04938271604938272,0,0,0.04938271604938272,16.74074074074074,0)" xlink:href="#cL"/><use transform="matrix(0.04938271604938272,0,0,0.04938271604938272,30.567901234567906,0)" xlink:href="#cG"/></g><path d="M248 18c32 1 55-1 51-36l19 8c0 41-30 46-72 45-31-1-62 3-62-27v-41h-27c-11 44-42 65-89 74l-9-18c40-7 68-21 78-56H87v-82h65l13-24 20 6-11 18h106v82h-29L238-7l26-3c-2-4-8-8-9-12l13-7c9 10 14 20 21 32l-13 9c-1-3-3-7-5-9-19 4-38 6-58 9-1-9-7-20 7-18 5-8 9-18 13-27h-28V4c2 18 20 13 43 14zM19 24c31-70 21-180 23-281h124v-24h23v24h124v18H64v117C64-57 57-4 37 40zm211-151v-69h-40v-17h40v-20h19v20h54v17h-54v69h-19zm-107 0v-69H77v-17h46v-20h19v20h39v17h-39v69h-19zm165-18c10-1 7-12 8-23l16 5c-1 22-2 35-26 33-31 7-19-33-21-58h17c2 14-6 39 6 43zm-97 95h68v-17h-68v17zm0-49v17h68v-17h-68zm-83 49h63v-17h-63v17zm-31-85c11-13 14-29 13-52h18c1 26-3 47-16 62zm108-3c12-13 14-26 13-49h18c1 26-3 45-16 60zm-77 56h63v-17h-63v17zm51-62v-43h16v43h-16" id="dg"/><use transform="matrix(0.05,0,0,0.05,0,0)" xlink:href="#dg" id="ar"/><path d="M299 42l-17-30C225 22 152 27 92 35l-4-24 42-4c18-36 33-75 47-114H99v-20h94v-71h-73v-20h73v-62h23v62h81v20h-81v71h102v20H202L157 5 270-7c-13-23-23-36-37-57l19-12 68 106zM23 25C42-8 59-52 71-91l18 11c-6 17-12 36-20 57S53 18 42 40zm53-148c-15-17-37-37-55-49l12-17c23 15 40 30 59 47zM46-277c20 16 38 31 55 49l-16 17c-16-18-33-35-53-49" id="dh"/><use transform="matrix(0.05,0,0,0.05,0,0)" xlink:href="#dh" id="as"/><path d="M143 39V21H60v22H37V-96h129V39h-23zm145-90c-2-47-21-69-44-96l41-99h-64V43h-23v-310h99l16 14-44 103c23 28 42 52 43 99 1 41-31 58-73 47l-5-24c23 7 55 7 54-23zM60 1h83v-77H60V1zm58-147l18-69 22 4-18 65h46v20H21v-20h97zm-91-76v-20h66v-37h23v37h63v20H27zm39 9l19 55-21 7-18-55" id="di"/><use transform="matrix(0.05,0,0,0.05,0,0)" xlink:href="#di" id="at"/><path d="M26-47v-20h132v-33H51v-18h107v-29H55v-115h230v115H181v29h107v18H181v33h133v20H26zm155-196v77h81v-77h-81zM77-166h81v-77H77v77zM269-39l47 65-20 13c-13-25-27-46-44-67zM23 28C40 8 51-12 62-36l20 10C72-2 57 22 42 42zm184 11c-6-24-14-44-24-65l20-7c12 22 18 40 27 65zm-81 0c-2-24-5-45-11-66l21-5c7 22 11 44 13 66zm72-223c13-16 22-34 31-54l19 9c-8 21-20 39-32 57zm-74 11c-9-18-19-40-31-55l17-9c12 16 25 34 32 54" id="dj"/><use transform="matrix(0.05,0,0,0.05,0,0)" xlink:href="#dj" id="au"/><use transform="matrix(0.05,0,0,0.05,0,0)" xlink:href="#dg" id="av"/><path d="M280 40V26H59v16H36v-308h266V40h-22zM59 8h221v-256H59V8zm14-152v-18h84v-15H99v-56h139v56h-59v15h86v18H73zm34 111h126v-78H107v78zm22-17v-45h78v45h-78zm-8-143h95v-23h-95v23zm28 128h39v-15h-39v15zm-42 48v11H86v-122h167V-6h-21v-11H107" id="dk"/><use transform="matrix(0.05,0,0,0.05,0,0)" xlink:href="#dk" id="aw"/><path d="M26-90v-18h131v-20H50v-18h107v-20H57v-17h100v-21H26v-17h131v-21H58v-17h99v-21h23v21h99v38h35v17h-35v38h-99v20h110v18H180v20h134v18H26zM252 40V28H87v15H64V-70h211V40h-23zM87 12h165v-25H87v25zm0-41h165v-24H87v24zm169-154v-21h-76v21h76zm-76-59v21h76v-21h-76" id="dl"/><use transform="matrix(0.05,0,0,0.05,0,0)" xlink:href="#dl" id="ax"/><path d="M283 40V23h-89v19h-23v-233h117v85h-94v36h112V40h-23zM61 11v31H39v-219h100v100H61v24h80v18H61v26h81v20H61zM19-201c23-20 45-46 56-77h25c10 20 29 42 47 55v-25h68v-32h23v32h75v67h-23v-47H169v47h-22v-38l-10 17c-17-13-38-34-48-55l-27 44h61v18H57v-13c-8 10-17 19-27 26zM194-50V4h89v-54h-89zm0-76h71v-46h-71v46zM61-94h56v-24H61v24zm0-42h56v-23H61v23" id="dm"/><use transform="matrix(0.05,0,0,0.05,0,0)" xlink:href="#dm" id="ay"/><path d="M112-279c13 39 39 76 69 99l-15 18c-29-24-52-58-66-94-11 28-25 55-44 77h92v20h-37v41h60v20h-60V12c2 28-25 26-51 24l-6-22c13 0 36 8 35-8V-98H25v-20h64v-41H51v-15c-6 7-14 14-21 20l-12-18c31-26 55-63 68-107h26zM262 42V-60l-85 23-7-22 92-22v-199h22v193l33-8 3 19-36 10V42h-22zM66-75C58-45 56-9 43 16L23 7c10-22 18-51 23-87zm82-3c6 29 15 56 25 79l-20 10c-8-24-19-52-24-83zm80-29c-17-16-35-27-53-40l14-15c21 12 37 24 54 39zm0-85c-17-18-30-29-48-44l14-15c18 12 34 28 49 43" id="dn"/><use transform="matrix(0.05,0,0,0.05,0,0)" xlink:href="#dn" id="az"/><path d="M214 15c15 0 50 12 50-9v-56H84c-6 39-19 70-43 92L22 27C72-9 63-98 63-183l-23 16-13-18c41-26 70-53 93-95l20 7-10 18h92l13 11-32 45h83V11c5 38-39 29-67 26zm-32-85h82v-48h-82v48zm-97-48v48h76v-48H85zm97-62v44h82v-44h-82zm-65-57c-10 14-22 27-35 38h95c9-11 20-27 27-38h-87zM85-136h76v-44H85v44" id="do"/><use transform="matrix(0.05,0,0,0.05,0,0)" xlink:href="#do" id="aA"/><path d="M148 13c59-5 134 20 129-40l24 8c-2 58-53 55-117 53-48-2-94 9-94-43v-87C73-81 52-65 30-57L19-77c37-16 68-42 90-73H24v-21h88v-49H48v-19h64v-41h23v41h69v-41h23v41h63v19h-63v49h86v21h-81c22 28 53 52 89 67l-13 22c-26-12-47-30-67-48v74H112c-3 32 3 51 36 48zm92-123c-12-11-25-26-34-40h-70c-8 14-19 27-32 40h136zM112-54h107v-38H112v38zm23-117h69v-49h-69v49" id="dp"/><use transform="matrix(0.05,0,0,0.05,0,0)" xlink:href="#dp" id="aB"/><path d="M286 38V21H172v21h-22v-157h158V38h-22zM161-142v-78h137v78H161zM72 42v-218H23v-21h118v21H94V42H72zm111-202h93v-41h-93v41zm-34-86v-19h166v19H149zM19 3c16-40 15-94 15-150h20C51-91 54-27 37 15zm93-9v-140h19V-6h-19zM33-244v-20h98v20H33zM238 2h48v-41h-48V2zm-66 0h45v-41h-45V2zm66-98v38h48v-38h-48zm-66 38h45v-38h-45v38" id="dq"/><use transform="matrix(0.05,0,0,0.05,0,0)" xlink:href="#dq" id="aC"/><path d="M115-167c16 31 35 67 60 88l-13 21c-20-20-39-52-51-80l2 180H90l1-172C78-92 59-52 34-23L21-44c29-32 50-76 64-123H28v-20h62v-46l-54 11-8-20c48-6 94-18 129-34l14 17c-17 8-38 13-58 20v52h61v20h-59zM222 11c22 2 56 12 56-10v-280h22V7c2 35-41 30-72 26zm-23-49v-220h22v220h-22" id="dr"/><use transform="matrix(0.05,0,0,0.05,0,0)" xlink:href="#dr" id="aD"/><path d="M143 30V9h74v-165h-59v-20h59v-102h23v102h68v20h-68V9h78v21H143zM78 42v-217H24v-20h126v20h-50V42H78zM19 4c17-40 16-92 16-150h21C53-90 57-23 38 17zm104-6v-144h21V-2h-21zM36-243v-20h105v20H36" id="ds"/><use transform="matrix(0.05,0,0,0.05,0,0)" xlink:href="#ds" id="aE"/><path d="M126-127c33 6 58 20 58 59 0 88-139 92-164 29-3-8-5-16-6-25l32-3c6 27 21 44 54 44 32 0 52-15 52-46 0-38-36-46-79-43v-28c39 1 72-4 72-42 0-27-17-43-46-43-28 0-47 15-49 41l-32-3c6-42 35-63 81-64 48-1 79 21 79 65 0 36-21 52-52 59" id="dt"/><use transform="matrix(0.05,0,0,0.05,0,0)" xlink:href="#dt" id="aF"/><path d="M305-261c-27 8-57 13-87 19v59h101v20H218v60h77V39h-22V21H145v21h-22v-145h72v-60H97v-20h98v-56c-26 4-53 7-80 7l-7-21c65-1 131-12 183-26zM145 1h128v-84H145V1zM26 27C48-8 67-53 80-95l19 11C87-39 67 5 46 42zm57-158c-20-15-43-30-65-41l12-18c23 12 47 25 67 39zm10-85c-20-16-39-29-62-41l13-17c21 10 45 26 63 40" id="du"/><use transform="matrix(0.05,0,0,0.05,0,0)" xlink:href="#du" id="aG"/><path d="M186-136c32 49 78 91 129 121L301 5c-48-31-93-71-123-119 4 48 1 104 2 156h-23l2-156C129-62 85-20 37 13L23-6c53-34 95-77 126-130H30v-20h127v-124h23v124h129v20H186zm-85-33c-12-25-29-48-46-68l18-12c16 19 36 46 49 68zm117-15c18-19 31-44 42-69l21 10c-11 23-29 52-44 72" id="dv"/><use transform="matrix(0.05,0,0,0.05,0,0)" xlink:href="#dv" id="aH"/><path d="M105-188c12 37 34 68 55 95l-13 21c-17-25-35-50-46-81l3 195H80l2-190C71-109 52-66 31-37L18-57c25-37 45-83 59-131H28v-20h52v-71h24v71h41v20h-40zM209 11c18 1 47 11 47-8v-188H155v-21h101v-74h23v74h39v21h-39V11c3 31-37 28-64 24zm-12-75l-30-76 19-10 31 76" id="dw"/><use transform="matrix(0.05,0,0,0.05,0,0)" xlink:href="#dw" id="aI"/><path d="M104 17l80-8v18L41 42l-5-20 46-3V-93L32-68 21-87c55-20 102-52 132-96h27c3 5 6 9 10 13 11-4 21-11 30-17-12-16-22-34-28-56h-19v-18h110l13 11c-14 25-28 47-48 66 19 18 43 33 69 41l-12 20c-25-12-52-28-72-49-8 6-17 12-28 18 28 26 68 47 112 59l-11 20c-19-7-37-14-53-22v79h-64c13 9 28 15 44 21l38-32 20 11-38 28c20 6 42 11 66 13l-12 20c-63-8-108-29-148-61h-55v35zM18-183c19-14 35-34 46-55 8 3 13 10 26 9v-51h22v16h53v18h-53v17h33l14 13c-29 47-65 77-121 100l-11-18c20-7 41-18 57-29-10-8-23-16-34-22-7 7-14 13-20 18zm113 69v-13c-12 10-26 20-40 29h160c-17-9-32-18-46-30v14h-74zm-27 81h126v-18H104v18zm0-33h126v-16H104v16zM62-199l38 23c12-11 22-22 30-35H71zm150-44c6 17 13 32 23 44 13-12 25-27 33-44h-56zm-9 114c-13-12-25-24-36-37-9 12-20 25-34 37h70" id="dx"/><use transform="matrix(0.05,0,0,0.05,0,0)" xlink:href="#dx" id="aJ"/><path d="M222-202l5-28 19 2-4 26h68v17h-72l-4 21h69v67H173v-67h42l4-21h-51v-14h-13V41h-20V-87l-64 9-4-19 16-1v-101H68v-19h104v16h50zM17 25c34-66 17-183 21-281h127v-24h23v24h128v19H60c-6 95 9 209-25 278zm44-14c9 0 17-2 26-3v-23H69v-17h18v-17H66v-18h63v18h-22v17h18v17h-18V5l22-4 1 16-65 13zm100-70v-18h154v18H161zm83 78c22 4 23-10 25-25l18 7c-1 26-13 38-44 35-23-2-39 1-39-17v-58h20c4 24-14 65 20 58zm-86 4c9-16 16-37 19-57l17 6c-4 20-12 45-20 62zm144 4c-4-17-13-42-22-56 9-3 16-14 21 1s13 30 17 46zm-50-41c-6-12-15-25-24-34 17-21 28 11 38 23zm-149-86l32-5v-19h-32v24zm0-40h32v-22h-32v22zm0-38h32v-21h-32v21zm125 64h20v-33h-20v33zm36-33v33h20v-33h-20zm-72 33h19v-33h-19v33" id="dy"/><use transform="matrix(0.05,0,0,0.05,0,0)" xlink:href="#dy" id="aK"/><path d="M155-56V0h-30v-56H8v-25l114-167h33v167h35v25h-35zm-30-156c-27 46-58 90-88 131h88v-131" id="dz"/><use transform="matrix(0.05,0,0,0.05,0,0)" xlink:href="#dz" id="aL"/><path d="M230 13c14 0 43 12 43-5v-70h-93v34l35-5c-4-6-7-11-11-16l17-9 34 54-20 10c-3-7-6-13-10-21L89 1l-4-22 73-5v-36H64V42H41V-82h117v-22H67v-107h203v107h-90v22h116v94c4 32-35 24-62 22zM110-215v-24H24v-19h86v-22h23v22h71v-22h22v22h89v19h-89v24h-22v-24h-71v24h-23zm-20 93h68v-27H90v27zm90 0h68v-27h-68v27zm-90-44h68v-26H90v26zm90-26v26h68v-26h-68" id="dA"/><use transform="matrix(0.05,0,0,0.05,0,0)" xlink:href="#dA" id="aM"/><path d="M224-200c5-10 10-21 13-32l21 6-12 26h62v18h-65v21h58v17h-58v22h58v16h-58v23h67v17H150v-79c-5 8-10 14-14 19l-13-18c20-24 37-56 48-89l19 8c-3 8-6 17-10 25h44zM18 23c36-64 24-178 26-278h121v-24h23v24h129v20H67l-1 117C64-54 59 0 35 41zm122-248c-5 16-14 32-22 46v118H97l1-85-17 22-14-18c22-25 41-56 54-91zM151-4c-1 29 70 21 89 9 3-6 4-20 5-29l20 8c2 43-26 51-71 49-34-1-65 4-65-29v-52h22v44zm148 32c-10-22-24-41-37-61l17-12 39 60zM60 17C73 2 86-20 93-40l17 10c-8 22-21 43-33 60zM171-83h51v-23h-51v23zm0-39h51v-22h-51v22zm0-39h51v-21h-51v21zm35 148c-11-13-21-24-36-35 18-27 37 10 51 20" id="dB"/><use transform="matrix(0.05,0,0,0.05,0,0)" xlink:href="#dB" id="aN"/><path d="M26 31V12h131v-52H53v-19h104v-35h22v35h106v19H179v52h133v19H26zm226-139L45-96l-3-22 55-1c13-16 27-39 38-58H69v-19h200v19H161l-36 57 112-5-31-31 17-12c26 21 47 47 68 72l-19 13zm30-69v-54H56v54H33v-74h123v-29h23v29h126v74h-23" id="dC"/><use transform="matrix(0.05,0,0,0.05,0,0)" xlink:href="#dC" id="aO"/><path d="M54-142c48-35 137-8 131 61C196 18 31 33 14-55l32-4c7 23 22 37 52 37 35-1 51-22 54-58 4-55-73-65-99-34H22l8-134h141v27H59" id="dD"/><use transform="matrix(0.05,0,0,0.05,0,0)" xlink:href="#dD" id="aP"/><path d="M301-94c-1 72 13 155-80 134l-3-23c19 5 50 9 54-11 5-22 6-52 6-82H93c-8 7-16 13-25 19h22v53h158v18H90v17H67v-87c-12 8-25 15-38 21L19-56c36-14 62-35 81-62H64v-97h205v97H128c-5 10-11 17-18 24h191zM105-220v-20H26v-18h79v-22h23v22h75v-22h23v22h87v18h-87v19h-23v-19h-75v20h-23zM97-24c30-10 57-25 71-50l22 3c-2 7-5 10-9 15 18 11 46 23 72 26l-11 20c-27-7-52-17-73-32-16 16-37 28-61 36zM86-136h160v-23H86v23zm0-39h160v-22H86v22" id="dE"/><use transform="matrix(0.05,0,0,0.05,0,0)" xlink:href="#dE" id="aQ"/><path d="M179-117c33 48 81 89 137 113l-13 23C254-9 209-44 177-88l2 130h-24l1-122C124-37 82 1 33 26L21 6c56-28 104-68 134-122v-97H33v-20h122v-46h24v46h126v20H179v96zm20 15c18-26 31-63 37-100l21 6-9 40 54 54-15 19-47-51c-6 16-14 34-24 47zM40-87c23-30 44-68 50-114l22 7c-3 17-7 33-13 48l40 37-14 18c-12-14-22-23-35-35-10 19-19 38-33 54" id="dF"/><use transform="matrix(0.05,0,0,0.05,0,0)" xlink:href="#dF" id="aR"/><path d="M159 8c32 6 64 10 66-30l5-108h-76C146-41 113 11 43 42L30 23c61-26 95-73 101-153H75v-20h179c0 17-1 33-1 49 0 63 16 134-69 134-6 0-13-1-20-2zm63-274c17 56 53 104 98 133l-14 21c-46-33-81-78-102-134h-66v-20h84zM20-135c35-28 68-70 84-120l21 9c-21 51-52 96-90 129" id="dG"/><use transform="matrix(0.05,0,0,0.05,0,0)" xlink:href="#dG" id="aS"/><path d="M54-54c59-22 109-56 145-100l22 10c-7 8-15 17-23 25h97l18 15C256-25 162 21 48 42L36 20c56-7 103-24 145-44-14-16-23-25-40-39l17-14 45 41c30-18 55-39 76-63H176c-31 26-67 49-109 64zM37-191c48-21 91-52 122-89l21 10c-7 10-15 17-23 25h92l20 14C216-163 126-111 33-87l-11-22c48-8 90-28 126-49l-43-36 15-14c17 11 33 25 48 38 24-17 47-35 65-55h-98c-25 21-54 38-84 53" id="dH"/><use transform="matrix(0.05,0,0,0.05,0,0)" xlink:href="#dH" id="aT"/><path d="M110-160c48 1 74 30 74 79 0 53-28 85-80 85-65 0-83-55-86-122-5-90 50-162 133-122 14 7 22 21 27 39l-31 6c-5-40-67-38-82-6-9 19-15 44-15 74 11-20 30-34 60-33zm-7 138c34 0 49-23 49-58s-16-56-50-56c-29 0-50 16-49 49 1 36 15 65 50 65" id="dI"/><use transform="matrix(0.05,0,0,0.05,0,0)" xlink:href="#dI" id="aU"/><path d="M168 28c37-40 43-101 42-176h-37v-20h59v-50h-50v-20h50v-43h23v43h47v20h-47v50h60v20h-41V9c4 27-16 31-41 27l-7-24c10 2 26 9 27-4v-156h-22c2 80-8 146-46 190zM24 28C58-12 67-72 65-148H22v-20h62v-49H36v-20h48v-43h23v43h46v20h-46v49h55v20h-35V9c2 26-16 33-42 28l-6-24c10 1 26 7 26-4v-157H86C87-69 77-1 41 43zm130-50c16-30 21-63 23-104l18 3c-2 42-7 81-24 111zm141-102c10 27 19 63 24 95l-19 8c-4-32-13-69-22-96zM17-31c10-26 16-59 17-95l17 3c-1 35-7 74-17 102zm130-93c8 21 15 48 19 72l-18 8c-3-26-9-52-18-73" id="dJ"/><use transform="matrix(0.05,0,0,0.05,0,0)" xlink:href="#dJ" id="aV"/><path d="M182-117c23 65 76 105 135 134l-13 21C246 10 196-35 168-94 146-31 95 15 34 41L22 21C86-5 133-49 153-117H34v-21h124v-66H54v-20h104v-56h22v56h104v20H180v66h126v21H182" id="dK"/><use transform="matrix(0.05,0,0,0.05,0,0)" xlink:href="#dK" id="aW"/><path d="M92-191c1-21-4-49 5-61-3-7-19-5-24-9 4 13 3 49 3 70-21 1-40 0-51-9 10 51 1 118 4 176 2 7 12-2 16-4v-153h31l1 235c5-3 13-3 15-8v-96c12 4 20 11 26 20 8-2 21-14 21-27v-111c0-7 19-14 7-20-5-3-9-7-14-13-7 10-22 11-40 10zm0 10h30v117c1 19-15 8-30 9v-126zm155-59c1-4 20-11 3-13-7-2-14-5-22-9-1 21-7 44-17 70-22 1-43 0-55-9 14 73-3 176 7 254 14-1 16-13 14-29h124c1 6-2 17 2 19 4-2 12-2 14-7v-206c1-7 25-11 7-19-4-3-9-6-14-12l-12 9h-81c12-13 22-29 30-48zM177 14V-86h124V14H177zm0-110v-86h124v86H177" id="dL"/><use transform="matrix(0.05,0,0,0.05,0,0)" xlink:href="#dL" id="aX"/><use transform="matrix(0.05,0,0,0.05,0,0)" xlink:href="#dK" id="aY"/><path d="M64 0c3-98 48-159 88-221H18v-27h164v26C143-157 98-101 97 0H64" id="dM"/><use transform="matrix(0.05,0,0,0.05,0,0)" xlink:href="#dM" id="aZ"/><path d="M258 39V24H81v18H58v-144h224V39h-24zM156-116v-88H55v66H33v-84h123v-25H49v-18h240v18H179v25h126v84h-23v-66H179v88h-23zM179 6h79v-37h-79V6zM81 6h75v-37H81V6zm98-90v35h79v-35h-79zM81-49h75v-35H81v35zm119-116v-17h64v17h-64zm-127 0v-17h62v17H73zm127 38v-18h64v18h-64zm-127 0v-18h62v18H73" id="dN"/><use transform="matrix(0.05,0,0,0.05,0,0)" xlink:href="#dN" id="ba"/><path d="M184-51c31 28 79 54 126 66l-13 25c-50-17-95-43-130-74C133-4 85 25 36 41L23 19c49-15 93-39 126-70-31-38-56-88-69-146H23v-20h130v-63h24v63h133v20h-57c-13 60-36 109-69 146zm-80-146c11 53 34 96 63 129 28-33 48-76 60-129H104" id="dO"/><use transform="matrix(0.05,0,0,0.05,0,0)" xlink:href="#dO" id="bb"/><path d="M272 32c-38-3-88 13-88-25v-91h-38C141-8 98 28 30 42l-9-20C80 10 121-17 123-84H87v14H64v-112h93v-39H28v-19h129v-39h23v39h131v19H180v39h95v112h-24v-14h-44v83c-1 23 35 11 58 13 27 3 27-20 27-44l23 8c-4 30-7 58-43 56zM87-104h164v-59H87v59" id="dP"/><use transform="matrix(0.05,0,0,0.05,0,0)" xlink:href="#dP" id="bc"/><path d="M187 14c22 5 55 11 55-21 0-20 6-38 6-60h-88C142-8 102 22 39 42L28 23c51-17 92-40 108-90H59v-19h82c2-12 5-27 4-41H53v49H30v-68h275v68h-23v-49H168c0 14-2 29-3 41h108c-7 59 9 144-80 122zm-18-184c40-19 64-48 62-107l21 1c0 20-2 38-6 53 13 24 36 40 61 51l-13 19c-22-12-44-28-57-48-12 22-31 36-54 49zm-141 0c42-16 61-50 61-107l21 1c0 22-2 40-7 55 13 23 34 36 57 49l-12 19c-21-11-39-27-53-46-13 21-30 37-55 48zm4-46c7-13 13-30 15-48l20 5c-2 17-9 38-16 51zm229-6c10-10 18-28 24-43l18 10c-7 15-15 34-25 45zm-86 5c6-11 11-32 13-48l19 5c-2 17-7 38-13 50zm-57-5c10-14 18-28 23-43l18 10c-7 16-14 31-25 45" id="dQ"/><use transform="matrix(0.05,0,0,0.05,0,0)" xlink:href="#dQ" id="bd"/><path d="M134-131c28 9 52 24 51 62-1 50-34 73-85 73S17-19 16-69c0-36 21-54 49-61-75-25-45-126 34-121 46 3 78 18 79 63 0 33-17 51-44 57zm-34-11c31 1 46-15 46-44 0-28-17-43-47-42-29 0-46 13-45 42 1 28 16 44 46 44zm1 122c35 0 51-18 51-52 0-30-18-46-53-46-33 0-51 17-51 47 0 34 19 51 53 51" id="dR"/><use transform="matrix(0.05,0,0,0.05,0,0)" xlink:href="#dR" id="be"/><path d="M62-54c7-14 13-25 18-40h14c15 16 30 31 47 43 10-18 15-39 16-63H78v14H55v-124h102v-56h23v56h107v131h-23v-21h-84c-1 29-8 54-20 75 45 29 98 48 158 58l-8 22C247 30 194 7 148-22 124 8 86 29 34 42L24 22c48-10 84-29 106-56-14-10-27-22-40-34-3 7-5 16-9 22zm118-149v69h84v-69h-84zM78-134h79v-69H78v69" id="dS"/><use transform="matrix(0.05,0,0,0.05,0,0)" xlink:href="#dS" id="bf"/><path d="M178-98c33 44 81 79 137 101l-13 21c-50-25-91-51-125-92l1 110h-22l1-110C126-30 81 7 34 30L23 10C82-18 126-54 156-98v-70H30v-19h126v-35h22v35h130v19H178v70zm-72-113v-25H25v-19h81v-25h23v25h79v-25h22v25h83v19h-83v25h-22v-25h-79v25h-23zm92 133c17-21 32-50 39-82l22 7c-3 11-7 22-11 32 21 13 38 29 56 45l-13 18-51-44c-7 13-15 26-24 38zM31-70c24-23 41-54 53-89l21 7c-4 12-6 22-12 32 14 11 26 24 39 35l-14 17-34-35C73-86 61-70 48-55" id="dT"/><use transform="matrix(0.05,0,0,0.05,0,0)" xlink:href="#dT" id="bg"/><path d="M255 39V26H84v16H61V-80h217V39h-23zM84 6h171v-66H84V6zm83-268c44-2 91-5 125-17l13 20c-35 7-75 14-115 16v41h127v19h-48v94h-23v-94h-57c-1 44-14 73-36 97l-18-17c37-27 33-93 32-159zM21-162c18-3 38-7 57-12v-47H24v-20h54v-39h23v39h47v20h-47v41l46-13 2 19c-17 7-28 9-48 15 2 43 6 83-53 69l-5-22c12-1 35 10 35-9v-33l-52 13" id="dU"/><use transform="matrix(0.05,0,0,0.05,0,0)" xlink:href="#dU" id="bh"/><path d="M244-192c16 53 43 103 74 141l-16 20c-26-32-46-74-62-116l2 189h-23l1-180c-12 42-34 83-58 116l-15-20c33-41 56-92 70-150h-49v-20h51v-68h23v68h63v20h-61zM85 42l1-184C75-102 57-60 36-29L22-50c26-40 47-88 60-142H31v-20h54v-68h22v68h52v20h-50c11 36 31 68 51 94l-14 21c-16-22-30-45-40-72l1 191H85" id="dV"/><use transform="matrix(0.05,0,0,0.05,0,0)" xlink:href="#dV" id="bi"/></defs></g></svg>